<svg width="64" height="64" viewBox="0 0 64 64" fill="none" xmlns="http://www.w3.org/2000/svg">
<rect width="64" height="64" rx="32" fill="white"/>
<path d="M38.25 49.5H36.8875L35.7375 43.75C35.6812 43.4562 35.425 43.25 35.125 43.25H28.875C28.575 43.25 28.3188 43.4625 28.2625 43.75L27.1125 49.5H25.75C25.4062 49.5 25.125 49.7812 25.125 50.125C25.125 50.4688 25.4062 50.75 25.75 50.75H38.25C38.5938 50.75 38.875 50.4688 38.875 50.125C38.875 49.7812 38.5938 49.5 38.25 49.5Z" fill="#282572"/>
<path d="M47.625 18.25H16.375C14.6491 18.25 13.25 19.6491 13.25 21.375V41.375C13.25 43.1009 14.6491 44.5 16.375 44.5H47.625C49.3509 44.5 50.75 43.1009 50.75 41.375V21.375C50.75 19.6491 49.3509 18.25 47.625 18.25Z" fill="#076DF3"/>
<path d="M48.225 20.125H15.775C15.4187 20.125 15.125 20.425 15.125 20.7875V40.7125C15.125 41.0812 15.4125 41.375 15.775 41.375H48.225C48.5812 41.375 48.875 41.075 48.875 40.7125V20.7875C48.875 20.4188 48.5875 20.125 48.225 20.125Z" fill="#282572"/>
<path d="M42.625 13.25H21.375C19.65 13.25 18.25 14.65 18.25 16.375V28.875C18.25 29.2188 18.5312 29.5 18.875 29.5H45.125C45.4688 29.5 45.75 29.2188 45.75 28.875V16.375C45.75 14.65 44.35 13.25 42.625 13.25Z" fill="#F1F2F2"/>
<path d="M45.75 28.25H18.25V32.625C18.25 34.35 19.65 35.75 21.375 35.75H42.625C44.35 35.75 45.75 34.35 45.75 32.625V28.25Z" fill="#F2B443"/>
<path d="M42 32.625H22C21.6562 32.625 21.375 32.3438 21.375 32C21.375 31.6562 21.6562 31.375 22 31.375H42C42.3438 31.375 42.625 31.6562 42.625 32C42.625 32.3438 42.3438 32.625 42 32.625Z" fill="white"/>
<path d="M32 26.375C35.1066 26.375 37.625 23.8566 37.625 20.75C37.625 17.6434 35.1066 15.125 32 15.125C28.8934 15.125 26.375 17.6434 26.375 20.75C26.375 23.8566 28.8934 26.375 32 26.375Z" fill="#F37781"/>
<path d="M33.9438 19.75L31.7438 18.4313C31.4251 18.2375 31.0376 18.2313 30.7126 18.4188C30.3563 18.625 30.1313 19.025 30.1313 19.4625V22.1C30.1313 22.5438 30.3563 22.9438 30.7126 23.1438C30.8688 23.2313 31.0438 23.2813 31.2188 23.2813C31.4001 23.2813 31.5813 23.2313 31.7501 23.1313L33.9501 21.8125C34.3001 21.6 34.5063 21.2188 34.5063 20.7813C34.5063 20.3438 34.3001 19.9625 33.9501 19.75H33.9438Z" fill="white"/>
<path d="M27 33.875C26.6562 33.875 26.375 33.5938 26.375 33.25V30.75C26.375 30.4062 26.6562 30.125 27 30.125C27.3438 30.125 27.625 30.4062 27.625 30.75V33.25C27.625 33.5938 27.3438 33.875 27 33.875Z" fill="#282572"/>
</svg>
