<svg width="64" height="64" viewBox="0 0 64 64" fill="none" xmlns="http://www.w3.org/2000/svg">
<g filter="url(#filter0_d_9482_8421)">
<rect x="4" y="4" width="56" height="56" rx="28" fill="url(#paint0_linear_9482_8421)" shape-rendering="crispEdges"/>
<path d="M32 40.624C31.3527 40.624 30.8281 40.0995 30.8281 39.4522V24.5478C30.8281 23.9004 31.3527 23.3759 32 23.3759C32.6473 23.3759 33.1719 23.9004 33.1719 24.5478V39.4522C33.1719 40.0995 32.6473 40.624 32 40.624Z" fill="white"/>
<path d="M39.4522 33.1719H24.5479C23.9005 33.1719 23.376 32.6473 23.376 32C23.376 31.3527 23.9005 30.8281 24.5479 30.8281H39.4522C40.0996 30.8281 40.6241 31.3527 40.6241 32C40.6241 32.6473 40.0996 33.1719 39.4522 33.1719Z" fill="white"/>
</g>
<defs>
<filter id="filter0_d_9482_8421" x="0" y="0" width="64" height="64" filterUnits="userSpaceOnUse" color-interpolation-filters="sRGB">
<feFlood flood-opacity="0" result="BackgroundImageFix"/>
<feColorMatrix in="SourceAlpha" type="matrix" values="0 0 0 0 0 0 0 0 0 0 0 0 0 0 0 0 0 0 127 0" result="hardAlpha"/>
<feOffset/>
<feGaussianBlur stdDeviation="2"/>
<feComposite in2="hardAlpha" operator="out"/>
<feColorMatrix type="matrix" values="0 0 0 0 1 0 0 0 0 0.419608 0 0 0 0 0 0 0 0 0.08 0"/>
<feBlend mode="normal" in2="BackgroundImageFix" result="effect1_dropShadow_9482_8421"/>
<feBlend mode="normal" in="SourceGraphic" in2="effect1_dropShadow_9482_8421" result="shape"/>
</filter>
<linearGradient id="paint0_linear_9482_8421" x1="4" y1="17.3913" x2="62.3825" y2="19.7548" gradientUnits="userSpaceOnUse">
<stop stop-color="#FFA800"/>
<stop offset="1" stop-color="#FF6B00"/>
</linearGradient>
</defs>
</svg>
