<svg width="24" height="24" viewBox="0 0 24 24" fill="none" xmlns="http://www.w3.org/2000/svg">
<g clip-path="url(#clip0_9772_7358)">
<path d="M3.67143 2.83225C3.67078 2.83225 3.67006 2.83225 3.66941 2.83225C3.44242 2.83225 3.22892 2.92074 3.06771 3.08155C2.90472 3.24413 2.81494 3.46062 2.81494 3.69108V16.5691C2.81494 17.0414 3.20064 17.4265 3.67482 17.4277C5.67386 17.4325 9.02304 17.8491 11.3335 20.267V6.78976C11.3335 6.62968 11.2926 6.47929 11.2155 6.35485C9.31912 3.30094 5.67499 2.83694 3.67143 2.83225Z" fill="#3A3A3C"/>
<path d="M21.1855 16.5691V3.691C21.1855 3.46054 21.0957 3.24405 20.9327 3.08147C20.7715 2.92066 20.5578 2.83217 20.3311 2.83217C20.3304 2.83217 20.3296 2.83217 20.329 2.83217C18.3255 2.83694 14.6814 3.30094 12.785 6.35485C12.7078 6.4793 12.667 6.62968 12.667 6.78976V20.2669C14.9775 17.849 18.3266 17.4324 20.3257 17.4276C20.7998 17.4264 21.1855 17.0413 21.1855 16.5691Z" fill="#3A3A3C"/>
<path d="M23.1416 5.80212H22.5189V16.5691C22.5189 17.7749 21.5365 18.758 20.3289 18.761C18.6333 18.7651 15.8375 19.0966 13.8574 20.9707C17.2819 20.1322 20.892 20.6772 22.9493 21.1461C23.2062 21.2046 23.4717 21.1442 23.6775 20.9801C23.8826 20.8165 24.0002 20.5719 24.0002 20.3093V6.66079C24.0003 6.18734 23.615 5.80212 23.1416 5.80212Z" fill="#3A3A3C"/>
<path d="M1.48138 16.5691V5.80212H0.85867C0.385294 5.80212 0 6.18734 0 6.66079V20.3091C0 20.5717 0.117657 20.8162 0.322749 20.9799C0.528406 21.1438 0.793619 21.2045 1.05091 21.1459C3.10829 20.6769 6.71841 20.132 10.1427 20.9704C8.16278 19.0965 5.36697 18.765 3.67137 18.761C2.46385 18.758 1.48138 17.7749 1.48138 16.5691Z" fill="#3A3A3C"/>
</g>
<defs>
<clipPath id="clip0_9772_7358">
<rect width="24" height="24" fill="white"/>
</clipPath>
</defs>
</svg>
