<svg width="28" height="28" viewBox="0 0 28 28" fill="none" xmlns="http://www.w3.org/2000/svg">
<g clip-path="url(#clip0_9793_11735)">
<path d="M14 28.0001C21.732 28.0001 28.0001 21.732 28.0001 14C28.0001 6.26803 21.732 0 14 0C6.26803 0 0 6.26803 0 14C0 21.732 6.26803 28.0001 14 28.0001Z" fill="url(#paint0_linear_9793_11735)"/>
<path d="M28 14C28 21.7001 21.7 28.0001 14 28.0001C9.53754 28.0001 5.60003 25.9876 3.0625 22.7501C5.425 24.6751 8.48751 25.8126 11.8125 25.8126C19.5125 25.8126 25.8125 19.5126 25.8125 11.8126C25.8125 8.48759 24.675 5.42508 22.75 3.06258C25.9876 5.59999 28 9.53749 28 14Z" fill="#F06C0C"/>
<path d="M18.5684 7.71881C19.0348 7.25241 19.8148 7.25241 20.2812 7.71881C20.7476 8.18522 20.7476 8.96531 20.2812 9.4317L15.7129 14.0001L20.2812 18.5684C20.7476 19.0348 20.7477 19.8148 20.2812 20.2813C19.8148 20.7477 19.0348 20.7477 18.5684 20.2813L14 15.713L9.43164 20.2813C8.96525 20.7477 8.18515 20.7477 7.71875 20.2813C7.25235 19.8149 7.25235 19.0348 7.71875 18.5684L12.2871 14.0001L7.71875 9.4317C7.25235 8.9653 7.25235 8.18521 7.71875 7.71881C8.18515 7.25241 8.96524 7.25241 9.43164 7.71881L14 12.2872L18.5684 7.71881Z" fill="white" stroke="#F06C0C" stroke-width="0.3"/>
</g>
<defs>
<linearGradient id="paint0_linear_9793_11735" x1="2.14172e-08" y1="6.69566" x2="29.1913" y2="7.87743" gradientUnits="userSpaceOnUse">
<stop stop-color="#FFA800"/>
<stop offset="1" stop-color="#FF6B00"/>
</linearGradient>
<clipPath id="clip0_9793_11735">
<rect width="28" height="28" fill="white"/>
</clipPath>
</defs>
</svg>
