<svg width="25" height="24" viewBox="0 0 25 24" fill="none" xmlns="http://www.w3.org/2000/svg">
<g clip-path="url(#clip0_9532_8754)">
<path d="M22.3587 3.50195C20.9756 2.11883 19.1367 1.35718 17.1807 1.35718C15.4508 1.35718 13.8124 1.95304 12.5 3.0475C11.1876 1.95304 9.54919 1.35718 7.81933 1.35718C5.86334 1.35718 4.02442 2.11888 2.64131 3.50195C-0.21377 6.35707 -0.21377 11.0028 2.64131 13.858L10.6709 21.8876C11.158 22.3746 11.8076 22.6428 12.5 22.6428C13.1925 22.6428 13.842 22.3746 14.3291 21.8875L22.3587 13.858C25.2137 11.0028 25.2137 6.35703 22.3587 3.50195ZM21.364 12.8633L13.3345 20.8928C13.1131 21.1142 12.8167 21.2362 12.5 21.2362C12.1833 21.2362 11.8869 21.1142 11.6655 20.8929L3.636 12.8634C1.32937 10.5566 1.32937 6.80326 3.63595 4.49659C4.7534 3.37914 6.2391 2.76378 7.81933 2.76378C9.39957 2.76378 10.8853 3.37915 12.0027 4.49654C12.2772 4.77121 12.7226 4.77121 12.9973 4.49654C14.1148 3.3791 15.6005 2.76374 17.1807 2.76374C18.761 2.76374 20.2467 3.3791 21.3641 4.4965C23.6707 6.80326 23.6707 10.5566 21.364 12.8633Z" fill="#636366"/>
</g>
<defs>
<clipPath id="clip0_9532_8754">
<rect width="24" height="24" fill="white" transform="translate(0.5)"/>
</clipPath>
</defs>
</svg>
