<svg width="24" height="24" viewBox="0 0 24 24" fill="none" xmlns="http://www.w3.org/2000/svg">
<g clip-path="url(#clip0_9793_12660)">
<path d="M4.61914 10.2801C4.61914 10.2801 5.06573 4.79063 9.4218 3.31993C11.2587 2.69994 12.4564 1.85216 13.2273 1.07928C13.9604 0.344113 15.2187 0.66711 15.5166 1.66155C16.7324 5.71952 17.5901 13.4134 7.81377 15.8344C7.87419 15.7881 4.61914 10.2801 4.61914 10.2801Z" fill="#FF5D9C"/>
<path d="M16.5673 13.0624C16.5673 13.0624 19.1015 14.166 19.7132 17.0497C19.9723 18.2717 20.5612 18.9356 21.1535 19.2951C21.6582 19.601 21.5882 20.3547 21.0387 20.5697C18.7653 21.4583 14.7039 22.2075 11.6239 18.1421C11.4988 17.9236 16.5673 13.0624 16.5673 13.0624Z" fill="#FF83B4"/>
<path d="M19.3989 16.042C18.5024 13.905 16.5673 13.0624 16.5673 13.0624C16.5673 13.0624 11.4988 17.9236 11.6239 18.1421C12.6399 19.4831 13.7627 20.3003 14.893 20.7614C15.1464 19.6146 16.0486 18.6866 17.0016 18.3938C18.2788 18.0014 19.0143 16.8792 19.3989 16.042Z" fill="#FF5D9C"/>
<path d="M10.1577 10.7291C10.1577 10.7291 11.5424 5.39835 16.0865 4.69926C18.0027 4.40446 19.3283 3.77568 20.2208 3.1469C21.0695 2.54888 22.2534 3.08354 22.3757 4.11442C22.8751 8.32125 22.3959 16.0479 12.3489 16.7503C12.4161 16.715 10.1577 10.7291 10.1577 10.7291Z" fill="#FFABCD"/>
<path d="M10.1577 10.7291C10.1577 10.7291 12.4161 16.715 12.3489 16.7503C13.7674 16.651 14.9952 16.4119 16.0564 16.0624C15.9673 15.3635 16.0052 14.5968 16.2375 13.7693C17.1659 10.4663 15.7091 6.57333 14.9974 4.97116C11.3177 6.26443 10.1577 10.7291 10.1577 10.7291Z" fill="#FF83B4"/>
<path d="M2.15161 16.7503C1.09271 16.7503 0.768433 16.248 0.768067 15.678C0.767334 14.5951 1.8222 14.6801 1.83392 14.6805C3.54943 14.7378 4.81047 14.3406 5.58207 13.5016C6.7197 12.2646 6.51316 10.3786 6.51096 10.3596L8.55936 10.1034C8.57382 10.2178 8.89627 12.9276 7.11887 14.8802C5.98838 16.1219 4.31847 16.7503 2.15161 16.7503Z" fill="#FFB39D"/>
<path d="M14.1514 23.3972C15.2103 23.3972 15.5349 22.8949 15.5349 22.3249C15.5349 21.2702 14.4808 21.327 14.4691 21.3273C12.7536 21.3847 11.4925 20.9875 10.7209 20.1485C9.58331 18.9115 9.78985 17.0255 9.79205 17.0064L7.74365 16.7503C7.72919 16.8645 7.40674 19.5747 9.18414 21.5271C10.3146 22.7689 11.9845 23.3972 14.1514 23.3972Z" fill="#FFB39D"/>
<path d="M16.5971 22.5818C17.6562 22.5818 17.9807 22.0797 17.9807 21.5095C17.9807 20.414 16.9265 20.5118 16.9148 20.5122C15.1993 20.5693 13.9383 20.1723 13.1667 19.3333C12.0292 18.0961 12.2358 16.2101 12.238 16.1913L10.1896 15.9349C10.1749 16.0493 9.85247 18.7593 11.63 20.7119C12.7604 21.9536 14.4305 22.5818 16.5971 22.5818Z" fill="#FFCBBE"/>
<path d="M5.65166 11.17C5.65166 11.17 4.46203 16.6606 7.4622 21.5024C7.7396 21.9503 8.39017 21.9558 8.67911 21.5154C9.07261 20.9157 9.52121 20.2434 9.52121 20.2434L10.8584 20.922C11.3973 21.1955 12.0552 20.9606 12.2991 20.4078L12.8929 19.0616L14.6789 18.9499C15.1326 18.9215 15.3483 18.3768 15.036 18.0465C13.5654 16.491 10.6447 12.9833 10.5451 9.57166L5.65166 11.17Z" fill="#60DAA8"/>
<path d="M11.949 13.9523C11.1778 12.5896 10.5889 11.0713 10.5451 9.57166L5.65166 11.17C5.65166 11.17 4.46203 16.6606 7.4622 21.5024C7.7396 21.9503 8.39017 21.9558 8.67911 21.5154C9.07261 20.9157 9.5214 20.2434 9.5214 20.2434L10.8586 20.922C11.3973 21.1955 12.0552 20.9606 12.2991 20.4078C11.8188 20.1115 11.4367 19.8213 11.1325 19.5512C10.4719 18.9646 10.3545 17.9644 10.8842 17.2575C11.5885 16.3178 11.8521 14.9524 11.949 13.9523Z" fill="#00CE8E"/>
<path d="M14.6418 9.79232C14.6418 11.0585 13.6152 12.0852 12.349 12.0852C11.0826 12.0852 10.0562 11.0585 10.0562 9.79232C10.0562 8.52597 11.0826 7.49948 12.349 7.49948C13.6152 7.49948 14.6418 8.52597 14.6418 9.79232Z" fill="#B24E2F"/>
<path d="M3.99975 18.0547C2.94086 18.0547 2.61658 17.5526 2.61621 16.9825C2.61548 15.9349 3.67035 15.9847 3.68206 15.9851C5.39757 16.0422 6.65861 15.6452 7.43022 14.8063C8.56785 13.569 8.36131 11.683 8.35911 11.6642L10.4075 11.4078C10.4221 11.5223 10.7446 14.2322 8.96702 16.1849C7.83653 17.4265 6.16661 18.0547 3.99975 18.0547Z" fill="#FFCBBE"/>
<path d="M12.5964 8.15498C12.5964 10.6392 10.5824 12.6531 8.09825 12.6531C5.61388 12.6531 3.6001 10.6392 3.6001 8.15498C3.6001 5.67062 5.61388 3.65683 8.09825 3.65683C10.5824 3.65683 12.5964 5.67062 12.5964 8.15498Z" fill="#FFDDCF"/>
<path d="M7.12354 3.76266C7.43756 3.69327 7.76367 3.65683 8.09857 3.65683C10.3601 3.65683 12.2318 5.32601 12.5493 7.49947C7.32001 7.00691 7.12354 3.76266 7.12354 3.76266Z" fill="#DD6642"/>
<path d="M9.07304 3.76266C8.75901 3.69327 8.4329 3.65683 8.09819 3.65683C5.83648 3.65683 3.96478 5.32583 3.64746 7.49947C8.87675 7.00691 9.07304 3.76266 9.07304 3.76266Z" fill="#E7896E"/>
<path d="M3.10624 0.923987L3.31369 1.30301C3.52042 1.68113 3.83133 1.99204 4.20944 2.19876L4.58847 2.40604C4.97647 2.61826 4.97647 3.17544 4.58847 3.38766L4.20944 3.59494C3.83133 3.80166 3.52042 4.11257 3.31369 4.49068L3.10624 4.86971C2.8942 5.25771 2.33701 5.25771 2.12479 4.86971L1.91752 4.49068C1.71061 4.11257 1.3997 3.80166 1.02159 3.59494L0.642562 3.38748C0.254563 3.17544 0.254563 2.61826 0.642562 2.40604L1.02159 2.19876C1.3997 1.99185 1.71061 1.68094 1.91752 1.30283L2.12479 0.923804C2.33701 0.535988 2.89402 0.535988 3.10624 0.923987Z" fill="#B0F0EF"/>
<path d="M22.5202 14.5895L22.6522 14.8306C22.7837 15.0712 22.9814 15.269 23.2219 15.4004L23.463 15.5323C23.7098 15.6672 23.7098 16.0217 23.463 16.1567L23.2219 16.2885C22.9814 16.4201 22.7837 16.6179 22.6522 16.8583L22.5202 17.0995C22.3852 17.3463 22.0308 17.3463 21.8958 17.0995L21.764 16.8583C21.6325 16.6179 21.4348 16.4201 21.1942 16.2885L20.9532 16.1567C20.7064 16.0217 20.7064 15.6672 20.9532 15.5323L21.1942 15.4004C21.4348 15.269 21.6325 15.0712 21.764 14.8306L21.8958 14.5895C22.0308 14.3428 22.3852 14.3428 22.5202 14.5895Z" fill="#B0F0EF"/>
<path d="M10.3203 9.65441C10.5144 9.65441 10.6719 9.49694 10.6719 9.30285V8.71911C10.6719 8.52502 10.5144 8.36755 10.3203 8.36755C10.126 8.36755 9.96875 8.52502 9.96875 8.71911V9.30285C9.96875 9.49694 10.126 9.65441 10.3203 9.65441Z" fill="black"/>
<path d="M5.87598 8.36755C5.68188 8.36755 5.52441 8.52502 5.52441 8.71911V9.30285C5.52441 9.49694 5.68188 9.65441 5.87598 9.65441C6.07025 9.65441 6.22754 9.49694 6.22754 9.30285V8.71911C6.22754 8.52502 6.07025 8.36755 5.87598 8.36755Z" fill="black"/>
<path d="M8.92638 9.33765C9.03294 9.17542 8.98772 8.95734 8.82548 8.85078C8.76598 8.81177 8.50285 8.71052 8.33861 8.95167C8.25987 9.06721 8.14507 9.08112 8.09856 9.08112C8.05187 9.08112 7.93523 9.06849 7.85833 8.95167C7.75176 8.78944 7.53368 8.74421 7.37145 8.85078C7.20922 8.95734 7.16399 9.17542 7.27074 9.33765C7.4544 9.61744 7.76384 9.78424 8.09856 9.78424C8.43309 9.78424 8.74254 9.61725 8.92638 9.33765Z" fill="black"/>
<path d="M0.852902 3.90328C1.1726 4.07832 1.43408 4.3398 1.60894 4.6595L1.81622 5.03853C1.97607 5.33076 2.2824 5.5124 2.61547 5.5124C2.94854 5.5124 3.25487 5.33076 3.41472 5.03853L3.622 4.6595C3.79686 4.33961 4.05815 4.07832 4.37803 3.90328L4.75706 3.696C5.0493 3.53615 5.23094 3.23 5.23094 2.89675C5.23094 2.56368 5.0493 2.25753 4.75706 2.09768L4.37803 1.89022C4.05833 1.71536 3.79686 1.45407 3.622 1.13418L3.41472 0.755156C3.25487 0.46292 2.94854 0.281464 2.61547 0.281281C2.2824 0.281281 1.97607 0.46292 1.81622 0.755156L1.60894 1.13418C1.43426 1.45388 1.17279 1.71536 0.852902 1.89022L0.473875 2.09768C0.181457 2.25753 0 2.56368 0 2.89675C0 3.23 0.181457 3.53615 0.473875 3.696L0.852902 3.90328ZM0.811154 2.71456L1.19036 2.5071C1.62835 2.2676 1.98632 1.90945 2.22582 1.47164L2.4331 1.09262C2.48656 0.995023 2.57848 0.984403 2.61547 0.984403C2.65246 0.984403 2.74437 0.995023 2.79784 1.09243L3.00512 1.47164C3.24462 1.90945 3.60259 2.2676 4.04057 2.5071L4.4196 2.71456C4.51719 2.76784 4.52781 2.85976 4.52781 2.89675C4.52781 2.93392 4.51719 3.02584 4.4196 3.07912L4.04057 3.2864C3.60259 3.52608 3.24462 3.88405 3.00512 4.32204L2.79766 4.70106C2.74437 4.79866 2.65246 4.80928 2.61547 4.80928C2.5783 4.80928 2.48638 4.79866 2.4331 4.70106L2.22582 4.32204C1.98632 3.88423 1.62817 3.52608 1.19018 3.2864L0.811154 3.07912C0.713742 3.02584 0.703122 2.93392 0.703122 2.89675C0.703122 2.85976 0.713742 2.76784 0.811154 2.71456Z" fill="black"/>
<path d="M23.6318 15.2239L23.3907 15.0921C23.2089 14.9927 23.06 14.844 22.9606 14.662L22.8287 14.4208C22.7046 14.194 22.4667 14.053 22.208 14.053C21.9495 14.053 21.7116 14.194 21.5875 14.4208L21.4556 14.662C21.356 14.844 21.2073 14.9927 21.0255 15.0921L20.7844 15.2239C20.5575 15.3481 20.4165 15.5857 20.4165 15.8445C20.4165 16.1032 20.5573 16.3411 20.7844 16.4652L21.0255 16.597C21.2073 16.6965 21.3562 16.8451 21.4556 17.0271L21.5875 17.2683C21.7116 17.4952 21.9495 17.6362 22.208 17.6362C22.4667 17.6362 22.7046 17.4952 22.8287 17.2683L22.9606 17.0271C23.06 16.8453 23.2089 16.6965 23.3907 16.597L23.6318 16.4652C23.8587 16.3411 23.9999 16.1032 23.9999 15.8445C23.9997 15.5857 23.8587 15.3481 23.6318 15.2239ZM23.0532 15.9802C22.7531 16.1442 22.5077 16.3896 22.3437 16.6897L22.2113 16.9327C22.2098 16.9334 22.0725 16.6897 22.0725 16.6897C21.9084 16.3896 21.6631 16.1442 21.3628 15.9802L21.12 15.8478C21.1194 15.8463 21.363 15.709 21.363 15.709C21.6631 15.5447 21.9084 15.2994 22.0725 14.9993C22.0725 14.9993 22.2098 14.7559 22.2102 14.7557L22.3437 14.9993C22.5079 15.2994 22.7531 15.5447 23.0532 15.709L23.2962 15.8414C23.2967 15.8428 23.0532 15.9802 23.0532 15.9802Z" fill="black"/>
<path d="M21.3359 18.9944C20.688 18.6013 20.2577 17.9225 20.0571 16.9768C19.895 16.2123 19.5912 15.5026 19.1538 14.8608C19.9087 14.2888 20.5533 13.6115 21.083 12.8296C21.1919 12.6689 21.1498 12.4502 20.9892 12.3413C20.8285 12.2325 20.6098 12.2745 20.5009 12.4352C19.1326 14.4547 16.9168 15.7267 13.915 16.2169C13.0542 15.1311 12.1306 13.7646 11.5337 12.3063C11.7983 12.3917 12.549 12.4896 13.1917 12.2988C14.5894 11.8835 15.3201 10.3317 14.8556 8.94965C14.5491 8.03779 13.7808 7.37513 12.8524 7.19569C12.8279 7.07429 12.7991 6.95454 12.7658 6.83662C13.7348 5.84511 14.8693 5.24233 16.1401 5.04677C17.8332 4.78621 19.2745 4.24367 20.4233 3.43435C20.7179 3.22689 21.0918 3.19119 21.4234 3.33895C21.7583 3.48837 21.9839 3.79379 22.0267 4.15597C22.249 6.02766 22.2878 8.7616 21.2112 11.1573C21.1317 11.3344 21.2062 11.553 21.3879 11.6221C21.642 11.7187 21.794 11.5757 21.8526 11.4455C22.9952 8.90296 22.9576 6.03297 22.7251 4.07302C22.6526 3.46255 22.273 2.94802 21.7098 2.6968C21.1496 2.44723 20.5174 2.50802 20.0184 2.85958C19.0536 3.53927 17.8547 4.01571 16.4512 4.27975C16.3298 3.39462 16.1291 2.48184 15.8532 1.56082C15.6766 0.971775 15.2143 0.530309 14.6161 0.379797C14.0216 0.230201 13.4091 0.39884 12.978 0.83115C12.0629 1.74869 10.8284 2.47397 9.30917 2.98703C9.0314 3.08078 8.75967 3.19357 8.50095 3.32211C6.91343 3.20492 6.09953 3.61929 5.27226 4.21328C5.11461 4.32662 5.07853 4.54635 5.19188 4.704C5.30504 4.86165 5.52476 4.89772 5.68241 4.78438C6.38938 4.27682 7.48288 3.85366 8.66153 4.04702C8.58334 4.33504 8.40775 4.79061 8.01828 5.26174C7.22379 6.22322 5.87101 6.85237 4.08867 7.0948C4.21263 6.62459 4.41881 6.17854 4.70317 5.77388C4.81468 5.61513 4.77641 5.39577 4.61766 5.28407C4.45872 5.17256 4.23937 5.21083 4.12785 5.36959C3.55254 6.18806 3.24859 7.15138 3.24859 8.15516C3.24859 9.72931 4.00279 11.1306 5.16862 12.0172C5.12614 12.3944 5.08458 12.9014 5.07194 13.5013C4.35893 14.0971 3.27678 14.3763 1.85003 14.3294C1.73449 14.3227 0.416504 14.1874 0.416504 15.6784C0.416504 16.1065 0.721007 17.1771 2.26897 17.1007C2.30285 17.5697 2.56451 18.4065 3.99968 18.4065C4.59001 18.4065 5.14518 18.3609 5.66557 18.271C6.01621 19.4998 6.51884 20.6478 7.16318 21.6879C7.35636 21.9999 7.69144 22.1889 8.0593 22.1938H8.07358C8.41251 22.1938 8.72635 22.0371 8.92941 21.7697C10.1282 23.0828 11.8851 23.7489 14.1512 23.7489C14.6117 23.7489 14.7893 23.5457 14.771 23.3523C14.7529 23.1591 14.6038 23.0458 14.1512 23.0458C10.4391 23.0458 9.36886 21.2065 9.33224 21.1633C9.44906 20.987 9.55673 20.8245 9.64059 20.6986L10.6993 21.2358C11.0283 21.4028 11.3988 21.4337 11.7487 21.3253C12.9284 22.3925 14.5579 22.9335 16.5973 22.9335C18.0764 22.9335 18.3093 22.0457 18.3306 21.5863C19.2567 21.5026 20.209 21.2717 21.1667 20.8972C21.5479 20.7482 21.8066 20.4019 21.842 19.9936C21.8771 19.5879 21.6832 19.2052 21.3359 18.9944ZM14.1891 9.17359C14.5302 10.1882 13.9822 11.2912 12.9676 11.6323C12.5007 11.7892 11.9915 11.7594 11.5482 11.5596C12.4132 10.6833 13.0189 9.40521 12.9431 7.94367C13.5222 8.12934 13.9893 8.57941 14.1891 9.17359ZM13.4759 1.32736C13.7304 1.0723 14.0924 0.972873 14.4445 1.0615C14.8001 1.15103 15.075 1.41306 15.1797 1.76242C15.4479 2.65762 15.6417 3.54311 15.7578 4.40023C14.5449 4.63991 13.4508 5.21504 12.4968 6.11372C11.9512 4.94258 10.9513 4.02413 9.725 3.58614C11.2609 3.04214 12.5228 2.28317 13.4759 1.32736ZM9.34835 4.20101C10.694 4.62746 11.7443 5.72298 12.1074 7.09516C10.5841 6.89027 9.40182 6.41603 8.58298 5.68123C8.587 5.67647 9.22274 4.97097 9.34835 4.20101ZM3.95171 8.15497C3.95171 8.04237 3.95647 7.93031 3.96526 7.81916C5.28837 7.66297 6.92698 7.24531 8.09812 6.19081C9.06399 7.06495 10.4516 7.61189 12.2312 7.81916C12.2401 7.92994 12.2449 8.04182 12.2449 8.15497C12.2449 10.4412 10.3847 12.3016 8.0983 12.3016C5.81187 12.3016 3.95171 10.4412 3.95171 8.15497ZM7.92563 13.0012C7.82163 13.5035 7.60776 14.0936 7.17142 14.5682C6.83542 14.9335 6.39066 15.2056 5.84153 15.3843C5.7302 14.1943 5.76939 13.1592 5.83256 12.4416C6.46152 12.7754 7.17197 12.9747 7.92563 13.0012ZM1.11963 15.6776C1.11944 15.4554 1.26135 15.0381 1.8222 15.0318C3.16729 15.017 4.25676 14.8506 5.07524 14.3593C5.08604 14.735 5.10966 15.134 5.15104 15.5506C4.71471 15.6235 4.22929 15.6262 3.69499 15.6337C2.6989 15.6474 2.45025 16.2233 2.37646 16.3962C1.21539 16.4064 1.11981 15.8749 1.11963 15.6776ZM2.9677 16.9823C2.96752 16.7728 3.01989 16.6206 3.12755 16.517C3.29253 16.3581 3.57305 16.3324 3.67028 16.3365C5.49198 16.3969 6.8444 15.9624 7.68888 15.0441C8.28104 14.4001 8.53775 13.6049 8.6467 12.9734C9.14657 12.917 9.62356 12.7842 10.0658 12.5872C9.9905 13.5458 9.68856 14.8698 8.70694 15.9481C7.64676 17.1126 6.06309 17.7032 3.99986 17.7033C2.96825 17.7032 2.96789 17.1793 2.9677 16.9823ZM11.0174 20.6085L9.68014 19.9299C9.52139 19.8493 9.32748 19.9002 9.22879 20.0484C9.22421 20.0551 8.77469 20.7288 8.38504 21.3226C8.31473 21.4295 8.20157 21.4905 8.07376 21.4905C8.07193 21.4905 8.0701 21.4905 8.06845 21.4905C7.9401 21.4888 7.82804 21.4257 7.76084 21.3173C7.15806 20.3446 6.68601 19.2707 6.35368 18.1203C7.51987 17.8077 8.48154 17.2401 9.22677 16.4214C10.4561 15.0708 10.7443 13.4022 10.7852 12.3254C11.7514 14.8493 13.6746 17.1185 14.7803 18.2882C14.8528 18.3649 14.8307 18.4493 14.8177 18.4821C14.8047 18.515 14.7629 18.5925 14.6567 18.5991L12.8707 18.7108C12.7396 18.719 12.6241 18.7996 12.571 18.9197L11.9772 20.2661C11.8985 20.4442 11.7544 20.5783 11.5709 20.6438C11.3876 20.7092 11.1909 20.6966 11.0174 20.6085ZM16.5973 22.2302C14.8258 22.2302 13.4061 21.7943 12.3701 20.9337C12.4725 20.822 12.5573 20.6931 12.6204 20.5497L13.007 19.6735C13.8564 20.5215 15.174 20.9069 16.9247 20.8634C17.513 20.8489 17.6295 21.2854 17.6295 21.5095C17.6293 21.7066 17.6293 22.2302 16.5973 22.2302ZM21.1414 19.9328C21.1291 20.0749 21.0429 20.1904 20.9107 20.2423C19.9966 20.5993 19.0914 20.8167 18.2154 20.8901C18.1509 20.7418 17.7595 20.1505 16.8976 20.1608C15.4937 20.1776 14.4251 19.9385 13.7116 19.3626L14.7007 19.3007C15.0486 19.279 15.3441 19.064 15.4719 18.7397C15.5996 18.4162 15.5303 18.0578 15.2914 17.8051C15.0394 17.5385 14.7437 17.2132 14.4268 16.8402C16.0309 16.5359 17.4176 16.0087 18.5774 15.2636C18.9608 15.828 19.2269 16.4515 19.3693 17.1225C19.6117 18.2658 20.1508 19.0979 20.9713 19.5955C21.0899 19.6675 21.1535 19.7937 21.1414 19.9328Z" fill="black"/>
</g>
<defs>
<clipPath id="clip0_9793_12660">
<rect width="24" height="24" fill="white"/>
</clipPath>
</defs>
</svg>
