<svg width="24" height="24" viewBox="0 0 24 24" fill="none" xmlns="http://www.w3.org/2000/svg">
<g clip-path="url(#clip0_9793_13046)">
<path d="M9.51099 6.11251C9.30943 6.11251 9.1313 5.98595 9.06568 5.79376C9.00005 5.59689 9.07036 5.37657 9.24849 5.25939C10.8376 4.17657 10.3735 2.86407 9.79224 1.83751C9.73599 1.73907 9.69849 1.67345 9.67036 1.60782C9.56724 1.36876 9.57193 1.11095 9.67505 0.8672C9.81099 0.543762 10.1204 0.271887 10.5469 0.107825C10.7204 0.0421997 10.9172 0.00469971 11.1188 0.00469971C11.4985 0.00469971 11.8547 0.121887 12.0657 0.32345C12.3797 0.618762 13.6641 2.34376 14.1797 5.35314C14.2032 5.48439 14.1657 5.62032 14.086 5.72345C14.0016 5.82657 13.8751 5.8922 13.7438 5.89689L9.53911 6.10782C9.52505 6.11251 9.52036 6.1172 9.51099 6.11251Z" fill="#425400"/>
<path d="M11.7425 0.665649C11.555 0.487524 11.0769 0.403149 10.7159 0.543774C10.2472 0.726586 9.95654 1.07815 10.1019 1.42502C10.2472 1.7719 11.9253 3.99846 9.51123 5.64377L13.7159 5.43284C13.2237 2.56877 12.0003 0.909399 11.7425 0.665649Z" fill="#A3BF00"/>
<path d="M13.5845 23.9953C12.872 23.9953 12.3002 23.8078 12.0002 23.6813C11.7002 23.8078 11.1283 23.9953 10.4158 23.9953C9.55798 23.9953 8.75642 23.7328 8.02048 23.2078C7.75329 23.2969 7.31267 23.4047 6.75954 23.4047C5.57829 23.4047 3.84392 22.9078 2.28298 20.5312C1.00798 18.5906 0.375166 16.1484 0.501729 13.65C0.642354 10.9219 1.66892 8.33906 3.46892 6.1875C4.63142 4.8 5.85485 4.50937 6.67985 4.50937C7.08767 4.50937 7.41579 4.57969 7.62673 4.64062C8.00642 4.41094 8.84079 3.98438 9.86735 3.98438C10.6267 3.98438 11.3439 4.21406 12.0002 4.66406C12.6564 4.21406 13.3689 3.98438 14.133 3.98438C15.1642 3.98438 15.9986 4.41094 16.3736 4.64062C16.5845 4.57969 16.9127 4.50937 17.3205 4.50937C18.1455 4.50937 19.3689 4.8 20.5314 6.1875C22.3314 8.33906 23.358 10.9219 23.4986 13.6547C23.6252 16.1531 22.9924 18.5953 21.7174 20.5359C20.1517 22.9125 18.4174 23.4094 17.2408 23.4094C16.6924 23.4094 16.247 23.2969 15.9799 23.2125C15.2439 23.7328 14.4424 23.9953 13.5845 23.9953Z" fill="#CC4400"/>
<path d="M21.3234 20.2781C18.8016 24.1078 15.9047 22.6781 15.9047 22.6781C13.95 24.2391 12.0047 23.1656 12.0047 23.1656C12.0047 23.1656 10.0594 24.2438 8.10468 22.6781C8.10468 22.6781 5.20781 24.1078 2.68125 20.2781C0.290621 16.6453 0.135933 10.9078 3.82968 6.48751C5.70468 4.24689 7.69218 5.16095 7.69218 5.16095C7.69218 5.16095 9.87656 3.51095 12.0047 5.25001C14.1328 3.51095 16.3172 5.16095 16.3172 5.16095C16.3172 5.16095 18.3047 4.24689 20.1797 6.48751C23.8687 10.9078 23.7141 16.6453 21.3234 20.2781Z" fill="#FFA20D"/>
<path d="M8.6627 13.0313C9.92346 13.0313 10.9455 12.0092 10.9455 10.7484C10.9455 9.48769 9.92346 8.46564 8.6627 8.46564C7.40193 8.46564 6.37988 9.48769 6.37988 10.7484C6.37988 12.0092 7.40193 13.0313 8.6627 13.0313Z" fill="white"/>
<path d="M8.66289 12.2297C9.48096 12.2297 10.1441 11.5665 10.1441 10.7485C10.1441 9.93039 9.48096 9.26721 8.66289 9.26721C7.84482 9.26721 7.18164 9.93039 7.18164 10.7485C7.18164 11.5665 7.84482 12.2297 8.66289 12.2297Z" fill="#471E00"/>
<path d="M9.37979 10.7906C9.80177 10.7906 10.1438 10.4486 10.1438 10.0266C10.1438 9.60459 9.80177 9.26251 9.37979 9.26251C8.95781 9.26251 8.61572 9.60459 8.61572 10.0266C8.61572 10.4486 8.95781 10.7906 9.37979 10.7906Z" fill="white"/>
<path d="M16.2987 12.7313C16.1862 12.7313 16.0737 12.7031 15.9706 12.6422L13.6597 11.311C13.4581 11.1938 13.3315 10.9781 13.3315 10.7438C13.3315 10.5094 13.4581 10.2938 13.6597 10.1766L15.9706 8.84533C16.2847 8.66251 16.6831 8.77033 16.8612 9.08439C17.044 9.39845 16.9362 9.79689 16.6222 9.9797L15.2956 10.7438L16.6222 11.5078C16.9362 11.6906 17.044 12.0891 16.8612 12.4031C16.744 12.6141 16.5237 12.7313 16.2987 12.7313Z" fill="#471E00"/>
<path d="M6.14541 7.6922C6.22041 8.11876 6.70322 8.3297 7.06416 8.09533C7.39697 7.88439 7.81885 7.67814 8.31103 7.58907C8.80322 7.50001 9.26728 7.55157 9.65166 7.63595C10.0735 7.7297 10.4532 7.36408 10.3782 6.9422C10.3454 6.75001 10.2188 6.58126 10.0407 6.50158C9.68916 6.33751 9.02353 6.13595 8.08603 6.3047C7.14853 6.46876 6.59072 6.88595 6.31416 7.15783C6.17353 7.29845 6.1126 7.50001 6.14541 7.6922Z" fill="#471E00"/>
<path d="M17.8548 7.6922C17.7798 8.11876 17.297 8.3297 16.9361 8.09533C16.6033 7.88439 16.1814 7.67814 15.6939 7.58908C15.2064 7.5047 14.733 7.55158 14.3533 7.63595C13.9314 7.7297 13.5517 7.36408 13.6267 6.9422C13.6595 6.75001 13.7861 6.58126 13.9642 6.50158C14.3158 6.33751 14.9814 6.13595 15.9189 6.3047C16.8564 6.46876 17.4142 6.88595 17.6908 7.15783C17.8267 7.29845 17.8876 7.50001 17.8548 7.6922Z" fill="#471E00"/>
<path d="M8.27373 13.9031H15.7315C16.3034 13.9031 16.7675 14.3672 16.7675 14.9391V14.9578C16.7675 17.5781 14.6394 19.7016 12.0237 19.7016H12.0003C9.37061 19.7016 7.23779 17.5688 7.23779 14.9391C7.23779 14.3672 7.70186 13.9031 8.27373 13.9031Z" fill="#471E00"/>
<path d="M16.2472 14.0438V14.3203C16.2472 15.0047 15.6894 15.5625 15.005 15.5625H8.99561C8.31123 15.5625 7.75342 15.0047 7.75342 14.3203V14.0438C7.90342 13.9547 8.08154 13.9031 8.27373 13.9031H15.7315C15.919 13.9031 16.0925 13.9547 16.2472 14.0438Z" fill="white"/>
<path d="M15.099 19.35C14.9161 20.4656 13.6271 22.0078 12.0005 22.0078C10.374 22.0078 9.08489 20.4656 8.90208 19.35C8.78489 18.6235 8.98176 18.0797 9.33333 17.7328C9.80676 17.2641 10.7865 17.0813 11.9958 17.0813C13.2052 17.0813 14.1849 17.2641 14.6583 17.7328C15.0146 18.0844 15.2161 18.6281 15.099 19.35Z" fill="#FF5500"/>
</g>
<defs>
<clipPath id="clip0_9793_13046">
<rect width="24" height="24" fill="white"/>
</clipPath>
</defs>
</svg>
