<svg width="72" height="72" viewBox="0 0 72 72" fill="none" xmlns="http://www.w3.org/2000/svg">
<g filter="url(#filter0_d_9532_8263)">
<rect x="4" y="4" width="64" height="64" rx="32" fill="white" shape-rendering="crispEdges"/>
<path d="M49.75 37.25V38.5V43.6062C49.75 44.7375 49.3 45.825 48.5 46.625C47.7 47.425 46.6125 47.875 45.4812 47.875H42.875V54.75H29.125V47.875H26.5188C25.3875 47.875 24.3 47.425 23.5 46.625C22.7 45.825 22.25 44.7375 22.25 43.6062V38.5V37.25H26V38.5V43.0125C26 43.625 26.5 44.125 27.1125 44.125C27.2063 44.125 27.2937 44.1125 27.3812 44.0938L32.25 42.875H39.75L44.6188 44.0938C44.7063 44.1125 44.7938 44.125 44.8875 44.125C45.5 44.125 46 43.625 46 43.0125V38.5V37.25H49.75Z" fill="#75B1F2"/>
<path d="M39.125 40.375L39.75 42.875H32.25L32.875 40.375H39.125Z" fill="#5D9CEC"/>
<path d="M23.5 24.75V31.1125C23.2313 31.2 22.9938 31.3562 22.8 31.55C22.4625 31.8875 22.25 32.3562 22.25 32.875V37.25V38.5H21C20.3125 38.5 19.75 37.9375 19.75 37.25V19.75H23.5V24.75Z" fill="#FCD770"/>
<path d="M31.4625 38.5H26V37.25L26.7 36.55C26.8625 36.3875 26.9875 36.2 27.075 36H27.0812H30.5375C30.7125 36.8812 31.025 37.725 31.4625 38.5Z" fill="#FCD770"/>
<path d="M46.0001 37.25V38.5H40.5376C40.9751 37.725 41.2876 36.8812 41.4626 36H44.9251C45.0126 36.2 45.1376 36.3875 45.3001 36.55L46.0001 37.25Z" fill="#FCD770"/>
<path d="M52.25 37.25C52.25 37.9375 51.6875 38.5 51 38.5H49.75V37.25V32.875C49.75 32.0562 49.2312 31.3625 48.5 31.1125V24.75V19.75H52.25V37.25Z" fill="#FCD770"/>
<path d="M39.75 17.25C37.6812 17.25 36 18.9313 36 21C36 18.9313 34.3188 17.25 32.25 17.25H23.5V19.75V24.75V31.1125C23.6937 31.0375 23.9062 31 24.125 31C25.1625 31 26 31.8375 26 32.875V33.6125C26.1937 33.5375 26.4062 33.5 26.625 33.5C26.9688 33.5 27.25 33.7812 27.25 34.125V35.225C27.25 35.4937 27.1937 35.7563 27.0812 36H30.5375C30.4313 35.4562 30.375 34.9 30.375 34.3375V32.975C30.375 31.7937 31.1312 30.75 32.25 30.375L32.625 29.875C33.4438 28.7875 34.6625 28.0813 36 27.9187C36.2063 27.8875 36.4125 27.875 36.625 27.875C38.0063 27.875 39.2562 28.4375 40.1625 29.3375C41.0625 30.2438 41.625 31.4937 41.625 32.875V34.3375C41.625 34.9 41.5688 35.4562 41.4625 36H44.925C44.8062 35.7563 44.75 35.4937 44.75 35.225V34.125C44.75 33.7812 45.0312 33.5 45.375 33.5C45.5938 33.5 45.8062 33.5375 46 33.6125V32.875C46 32.3562 46.2125 31.8875 46.55 31.55C46.8875 31.2125 47.3563 31 47.875 31C48.0938 31 48.3062 31.0375 48.5 31.1125V24.75V19.75V17.25H39.75Z" fill="#E6E9ED"/>
<path d="M38.5 19.75H46V22.25H38.5V19.75Z" fill="#B4DD7F"/>
<path d="M26 33.6125C26.1937 33.5375 26.4062 33.5 26.625 33.5C26.9688 33.5 27.25 33.7812 27.25 34.125V35.225C27.25 35.4938 27.1937 35.7562 27.0812 36H27.075C26.9875 36.2 26.8625 36.3875 26.7 36.55L26 37.25H22.25V32.875C22.25 32.3563 22.4625 31.8875 22.8 31.55C22.9938 31.3562 23.2312 31.2 23.5 31.1125C23.6938 31.0375 23.9062 31 24.125 31C25.1625 31 26 31.8375 26 32.875V33.6125Z" fill="#F0D0B4"/>
<path d="M49.75 37.25H46L45.3 36.55C45.1375 36.3875 45.0125 36.2 44.925 36C44.8062 35.7562 44.75 35.4938 44.75 35.225V34.125C44.75 33.7812 45.0312 33.5 45.375 33.5C45.5938 33.5 45.8062 33.5375 46 33.6125V32.875C46 32.3563 46.2125 31.8875 46.55 31.55C46.8875 31.2125 47.3563 31 47.875 31C48.0938 31 48.3063 31.0375 48.5 31.1125C49.2312 31.3625 49.75 32.0563 49.75 32.875V37.25Z" fill="#F0D0B4"/>
<path d="M41.625 32.875V34.3375C41.625 34.9 41.5688 35.4563 41.4625 36C41.2875 36.8813 40.975 37.725 40.5375 38.5C40.1625 39.1812 39.6875 39.8125 39.125 40.375H32.875C32.3125 39.8125 31.8375 39.1812 31.4625 38.5C31.025 37.725 30.7125 36.8813 30.5375 36C30.4313 35.4563 30.375 34.9 30.375 34.3375V32.975C30.375 31.7937 31.1313 30.75 32.25 30.375L32.625 29.875C33.4438 28.7875 34.6625 28.0812 36 27.9187C36.2063 27.8875 36.4125 27.875 36.625 27.875C38.0062 27.875 39.2562 28.4375 40.1625 29.3375C41.0625 30.2438 41.625 31.4938 41.625 32.875Z" fill="#656D78"/>
<path d="M49.125 19.125V16.625H39.75C38.1575 16.625 36.7656 17.4831 36 18.7581C35.2344 17.4831 33.8425 16.625 32.25 16.625H22.875V19.125H19.125V37.25C19.125 38.2838 19.9662 39.125 21 39.125H21.625V43.6069C21.625 44.9138 22.1338 46.1425 23.0581 47.0669C23.9819 47.9913 25.21 48.5 26.5175 48.5H28.5V55.375H43.5V48.5H45.4825C46.79 48.5 48.0188 47.9913 48.9419 47.0669C49.8663 46.1425 50.375 44.9138 50.375 43.6069V39.125H51C52.0337 39.125 52.875 38.2838 52.875 37.25V19.125H49.125ZM46.2588 36.625L45.7412 36.1075C45.505 35.8706 45.375 35.5569 45.375 35.2231V34.125C46.0644 34.125 46.625 34.6856 46.625 35.375H47.875C47.875 34.4538 47.3687 33.6562 46.625 33.2225V32.875C46.625 32.1856 47.1856 31.625 47.875 31.625C48.5644 31.625 49.125 32.1856 49.125 32.875V36.625H46.2588ZM24.125 31.625C24.8144 31.625 25.375 32.1856 25.375 32.875V33.2225C24.6312 33.6562 24.125 34.4538 24.125 35.375H25.375C25.375 34.6856 25.9356 34.125 26.625 34.125V35.2231C26.625 35.5569 26.495 35.8706 26.2587 36.1075L25.7413 36.625H22.875V32.875C22.875 32.1856 23.4356 31.625 24.125 31.625ZM27.1425 36.9912C27.2556 36.8781 27.355 36.7544 27.4437 36.625H30.0469C30.1562 37.0513 30.2869 37.4706 30.4556 37.875H26.625V37.5088L27.1425 36.9912ZM36.625 28.5C39.0369 28.5 41 30.4625 41 32.875V34.3394C41 36.3694 40.2337 38.2781 38.8494 39.75H33.1506C31.7662 38.2781 31 36.37 31 34.3394V32.9762C31 32.0638 31.5819 31.2562 32.4475 30.9681L32.6325 30.9062L33.1244 30.25C33.9469 29.1544 35.255 28.5 36.625 28.5ZM41.9531 36.625H44.5562C44.6444 36.7544 44.7438 36.8781 44.8569 36.9912L45.375 37.5088V37.875H41.5444C41.7131 37.4706 41.8438 37.0513 41.9531 36.625ZM26.625 39.125H31.1075C31.4175 39.6287 31.7787 40.1037 32.1881 40.5462L31.7306 42.3775L27.2325 43.4844C26.9237 43.565 26.625 43.3213 26.625 43.0119V39.125ZM33.3631 41H38.6369L38.9538 42.2663L33.05 42.2519L33.3631 41ZM40.265 42.3594L39.8125 40.5462C40.2219 40.1037 40.5825 39.6287 40.8931 39.125H45.375V43.0119C45.375 43.3206 45.0731 43.5619 44.7681 43.485L40.265 42.3594ZM39.75 17.875H47.875V30.375C46.4963 30.375 45.375 31.4963 45.375 32.875C44.6856 32.875 44.125 33.4356 44.125 34.125V35.2231C44.125 35.2744 44.1369 35.3237 44.14 35.375H42.1875C42.2256 35.0331 42.25 34.6888 42.25 34.3394V32.875C42.25 29.7738 39.7269 27.25 36.625 27.25V21C36.625 19.2769 38.0269 17.875 39.75 17.875ZM24.125 17.875H32.25C33.9731 17.875 35.375 19.2769 35.375 21V27.395C34.0906 27.6906 32.9269 28.4306 32.125 29.5006L31.8606 29.8525C30.59 30.3625 29.75 31.5931 29.75 32.9762V34.3394C29.75 34.6881 29.7744 35.0331 29.8131 35.375H27.8606C27.8631 35.3237 27.875 35.275 27.875 35.2231V34.125C27.875 33.4356 27.3144 32.875 26.625 32.875C26.625 31.4963 25.5037 30.375 24.125 30.375V17.875ZM21 37.875C20.655 37.875 20.375 37.5944 20.375 37.25V20.375H22.875V30.7225C22.1312 31.1562 21.625 31.9537 21.625 32.875V37.875H21ZM48.0581 46.1831C47.37 46.8713 46.4556 47.25 45.4825 47.25H42.25V54.125H29.75V47.25H26.5175C25.5444 47.25 24.6294 46.8713 23.9419 46.1831C23.2537 45.495 22.875 44.58 22.875 43.6069V37.875H25.375V43.0119C25.375 43.97 26.155 44.75 27.1131 44.75C27.2544 44.75 27.395 44.7325 27.5344 44.6981L32.3269 43.5H39.6731L44.4663 44.6981C44.605 44.7325 44.7456 44.75 44.8869 44.75C45.845 44.75 46.625 43.97 46.625 43.0119V37.875H49.125V43.6069C49.125 44.58 48.7463 45.495 48.0581 46.1831ZM51.625 37.25C51.625 37.5944 51.345 37.875 51 37.875H50.375V32.875C50.375 31.9537 49.8687 31.1562 49.125 30.7225V20.375H51.625V37.25Z" fill="black"/>
<path d="M46.625 19.125H37.875V22.875H46.625V19.125ZM45.375 21.625H39.125V20.375H45.375V21.625Z" fill="black"/>
<path d="M37.875 24.125H39.125V25.375H37.875V24.125Z" fill="black"/>
<path d="M40.375 24.125H46.625V25.375H40.375V24.125Z" fill="black"/>
<path d="M41.625 26.625H46.625V27.875H41.625V26.625Z" fill="black"/>
<path d="M25.375 19.125H26.625V20.375H25.375V19.125Z" fill="black"/>
<path d="M27.875 19.125H34.125V20.375H27.875V19.125Z" fill="black"/>
<path d="M25.375 21.625H34.125V22.875H25.375V21.625Z" fill="black"/>
<path d="M25.375 24.125H34.125V25.375H25.375V24.125Z" fill="black"/>
<path d="M25.375 26.625H31.625V27.875H25.375V26.625Z" fill="black"/>
</g>
<defs>
<filter id="filter0_d_9532_8263" x="0" y="0" width="72" height="72" filterUnits="userSpaceOnUse" color-interpolation-filters="sRGB">
<feFlood flood-opacity="0" result="BackgroundImageFix"/>
<feColorMatrix in="SourceAlpha" type="matrix" values="0 0 0 0 0 0 0 0 0 0 0 0 0 0 0 0 0 0 127 0" result="hardAlpha"/>
<feOffset/>
<feGaussianBlur stdDeviation="2"/>
<feComposite in2="hardAlpha" operator="out"/>
<feColorMatrix type="matrix" values="0 0 0 0 0 0 0 0 0 0 0 0 0 0 0 0 0 0 0.08 0"/>
<feBlend mode="normal" in2="BackgroundImageFix" result="effect1_dropShadow_9532_8263"/>
<feBlend mode="normal" in="SourceGraphic" in2="effect1_dropShadow_9532_8263" result="shape"/>
</filter>
</defs>
</svg>
