<svg width="24" height="24" viewBox="0 0 24 24" fill="none" xmlns="http://www.w3.org/2000/svg">
<path d="M19.896 2.16V18.84H5.784C5.33844 18.84 4.91113 19.017 4.59606 19.3321C4.281 19.6471 4.104 20.0744 4.104 20.52V3.46992C4.10399 3.06685 4.24976 2.67738 4.51442 2.37337C4.77908 2.06936 5.14477 1.87134 5.544 1.81584C5.62018 1.80522 5.69701 1.79992 5.77392 1.8H19.536C19.6315 1.8 19.7231 1.83793 19.7906 1.90545C19.8581 1.97296 19.896 2.06453 19.896 2.16Z" fill="#4FC3F7"/>
<path d="M17.3255 16.0402H8.94374C8.88008 16.0402 8.81904 16.0149 8.77403 15.9699C8.72902 15.9249 8.70374 15.8638 8.70374 15.8002C8.70374 15.7365 8.72902 15.6755 8.77403 15.6305C8.81904 15.5855 8.88008 15.5602 8.94374 15.5602H17.3255C17.3891 15.5602 17.4502 15.5855 17.4952 15.6305C17.5402 15.6755 17.5655 15.7365 17.5655 15.8002C17.5655 15.8638 17.5402 15.9249 17.4952 15.9699C17.4502 16.0149 17.3891 16.0402 17.3255 16.0402Z" fill="#039BE5"/>
<path d="M17.3255 17.5601H8.94374C8.88008 17.5601 8.81904 17.5348 8.77403 17.4898C8.72902 17.4448 8.70374 17.3837 8.70374 17.3201C8.70374 17.2564 8.72902 17.1954 8.77403 17.1504C8.81904 17.1054 8.88008 17.0801 8.94374 17.0801H17.3255C17.3891 17.0801 17.4502 17.1054 17.4952 17.1504C17.5402 17.1954 17.5655 17.2564 17.5655 17.3201C17.5655 17.3837 17.5402 17.4448 17.4952 17.4898C17.4502 17.5348 17.3891 17.5601 17.3255 17.5601Z" fill="#039BE5"/>
<path d="M6.02395 1.8V18.84H5.78395C5.70364 18.8399 5.62343 18.8456 5.54395 18.857C5.54395 18.8515 5.54395 18.8458 5.54395 18.84V1.81584C5.62012 1.80522 5.69695 1.79992 5.77387 1.8H6.02395Z" fill="#039BE5"/>
<path d="M13.2642 10.0759C13.7854 10.0759 14.2079 9.65343 14.2079 9.13225C14.2079 8.61107 13.7854 8.18857 13.2642 8.18857C12.7431 8.18857 12.3206 8.61107 12.3206 9.13225C12.3206 9.65343 12.7431 10.0759 13.2642 10.0759Z" fill="#039BE5"/>
<path d="M17.3333 8.72159C17.2255 8.85871 17.1083 8.99559 16.9817 9.13223C16.8756 9.24695 16.7636 9.36119 16.6457 9.47495C16.2866 9.81741 15.9038 10.1341 15.5002 10.4227C15.3308 10.545 15.1556 10.6645 14.9746 10.7813C14.7936 10.8981 14.6069 11.0121 14.4144 11.1233C14.2234 11.2334 14.0314 11.3378 13.8384 11.4367C13.6464 11.5346 13.4559 11.6268 13.2653 11.7127C12.8133 11.9183 12.3472 12.0915 11.8707 12.2311C11.7129 12.277 11.5578 12.317 11.4053 12.3511C11.2239 12.3924 11.0453 12.4255 10.874 12.4505C10.6461 12.4846 10.4161 12.5025 10.1856 12.504C9.40803 12.504 8.85603 12.2712 8.59827 11.826C8.57294 11.782 8.56211 11.7311 8.56731 11.6806C8.73201 11.7175 8.90353 11.7104 9.06459 11.6599C9.32331 11.9842 9.94899 12.0991 10.8058 11.9758C10.9587 11.9537 11.1161 11.9246 11.2772 11.8884C11.4292 11.8548 11.584 11.8148 11.7418 11.7684C12.064 11.6746 12.381 11.5637 12.6915 11.4362C12.8814 11.3591 13.0725 11.275 13.2648 11.1838C13.5672 11.0398 13.8716 10.8814 14.1737 10.7069C14.4759 10.5324 14.7665 10.3486 15.0418 10.1578C15.2165 10.0371 15.3845 9.91367 15.5458 9.78743C15.8112 9.58228 16.0656 9.36334 16.308 9.13151C16.4264 9.01775 16.5384 8.90343 16.644 8.78855C16.756 8.66711 16.86 8.54559 16.956 8.42399C17.5306 7.69415 17.7341 7.05743 17.5148 6.67751C17.2954 6.29759 16.6421 6.15623 15.7229 6.28799C15.5696 6.31007 15.4121 6.33919 15.2504 6.37535C15.0987 6.40895 14.944 6.44895 14.7862 6.49535C14.4644 6.58915 14.1478 6.69986 13.8377 6.82703C13.6478 6.90415 13.4567 6.98847 13.2644 7.07999C12.9617 7.22399 12.6572 7.38287 12.3548 7.55735C12.0524 7.73183 11.7627 7.91591 11.4867 8.10743C11.3122 8.22743 11.1432 8.35199 10.9815 8.47823C10.7164 8.68323 10.4622 8.90192 10.22 9.13343C10.1011 9.24751 9.98907 9.36175 9.88395 9.47615C9.72002 9.65288 9.56725 9.83965 9.42651 10.0354C9.30765 9.9265 9.16329 9.84933 9.00675 9.81095C9.01374 9.79192 9.02327 9.77392 9.03507 9.75743C9.19224 9.5386 9.36339 9.33016 9.54747 9.13343C9.65355 9.01903 9.76595 8.90487 9.88467 8.79095C10.2437 8.44897 10.6261 8.13237 11.029 7.84343C11.1989 7.72103 11.3741 7.60103 11.5546 7.48343C11.7351 7.36583 11.9218 7.25167 12.1148 7.14095C12.3068 7.03023 12.4988 6.92559 12.6908 6.82703C12.8828 6.72847 13.074 6.63679 13.2644 6.55199C13.7161 6.34687 14.1817 6.17389 14.6578 6.03431C14.8152 5.98839 14.9701 5.94839 15.1224 5.91431C15.3041 5.87303 15.4824 5.83991 15.6545 5.81495C16.7948 5.65079 17.6028 5.87255 17.9304 6.43895C18.258 7.00535 18.0459 7.81631 17.3333 8.72159Z" fill="#FFC400"/>
<path d="M17.9304 11.826C17.905 11.8701 17.8661 11.905 17.8195 11.9256C17.795 11.8474 17.7606 11.7725 17.7173 11.7029C17.6719 11.6301 17.6168 11.5639 17.5536 11.5058C17.7053 11.1199 17.4922 10.5204 16.9563 9.83952C16.8603 9.71808 16.7563 9.59656 16.6443 9.47496C16.5391 9.36024 16.4271 9.246 16.3083 9.13224C16.0657 8.90018 15.8111 8.68108 15.5455 8.47584C15.3838 8.34992 15.2153 8.22648 15.0401 8.10552C14.7651 7.91496 14.4749 7.73112 14.1727 7.55664C13.8706 7.38216 13.5658 7.22256 13.2631 7.07928C13.0711 6.98824 12.88 6.90416 12.6898 6.82704C12.3794 6.69979 12.0626 6.589 11.7406 6.49512C11.5828 6.44936 11.4279 6.40936 11.2759 6.37512C11.1149 6.33912 10.9575 6.31008 10.8046 6.288C9.88514 6.15552 9.2321 6.29736 9.01274 6.67752C8.79338 7.05768 8.9969 7.69416 9.57122 8.424C9.66722 8.54568 9.77138 8.66784 9.88322 8.78952C9.98834 8.90424 10.1003 9.0184 10.2192 9.132C10.4613 9.36375 10.7155 9.58253 10.9807 9.78744C11.1425 9.91352 11.3109 10.037 11.4859 10.1578C11.7612 10.3498 12.0516 10.5324 12.354 10.7069C12.6564 10.8814 12.9605 11.0405 13.2641 11.1838C13.4561 11.2748 13.6474 11.3589 13.8379 11.436C14.1481 11.5629 14.4646 11.6737 14.7862 11.7679C14.9441 11.8137 15.0989 11.8537 15.2506 11.8879C15.4857 11.9417 15.7241 11.9806 15.9641 12.0046C15.9292 12.162 15.9346 12.3257 15.9797 12.4805C15.9673 12.4826 15.9546 12.4837 15.942 12.4836C15.9343 12.4836 15.9267 12.4836 15.918 12.4836C15.6499 12.4569 15.3837 12.4128 15.1212 12.3518C14.9691 12.3173 14.814 12.2773 14.6561 12.2318C14.1807 12.0918 13.7155 11.9188 13.2641 11.7142C13.0731 11.6284 12.8817 11.5365 12.69 11.4384C12.4983 11.3403 12.3063 11.2358 12.114 11.1247C11.922 11.0143 11.7353 10.9003 11.5539 10.7827C11.3724 10.6651 11.1972 10.5456 11.0283 10.4242C10.6248 10.1356 10.2421 9.81905 9.88298 9.47688C9.7649 9.36312 9.6529 9.24888 9.54698 9.13416C9.4205 8.99736 9.30266 8.86008 9.1949 8.72304C8.48258 7.81776 8.27066 7.0068 8.59802 6.43968C8.92538 5.87256 9.7337 5.6508 10.8739 5.81568C11.0463 5.83968 11.2239 5.87376 11.4053 5.91504C11.5576 5.94944 11.7127 5.98944 11.8707 6.03504C12.3468 6.17437 12.8125 6.34712 13.2643 6.552C13.4549 6.63792 13.646 6.73 13.8377 6.82824C14.0294 6.92648 14.2214 7.03112 14.4137 7.14216C14.6044 7.25256 14.7907 7.36632 14.9724 7.48344C15.1531 7.59992 15.3284 7.71936 15.4985 7.84176C15.9025 8.13052 16.2856 8.44739 16.645 8.79C16.7631 8.90376 16.8751 9.01808 16.981 9.13296C17.1074 9.26944 17.2246 9.40632 17.3326 9.5436C18.0459 10.4482 18.2578 11.2589 17.9304 11.826Z" fill="#0097A7"/>
<path d="M15.5635 9.13223C15.5635 9.35335 15.558 9.57199 15.5471 9.78815C15.5366 10.0042 15.5207 10.2149 15.4991 10.4227C15.451 10.9164 15.3681 11.4061 15.251 11.8882C15.2119 12.0474 15.1691 12.2016 15.1226 12.3509C15.0674 12.529 15.0074 12.6991 14.9426 12.8614C14.5154 13.931 13.9199 14.52 13.2643 14.52C12.6086 14.52 12.0131 13.931 11.5843 12.8614C11.5195 12.6996 11.4595 12.5292 11.4045 12.3514C11.3583 12.2021 11.3155 12.0478 11.2761 11.8884C11.159 11.4063 11.0761 10.9165 11.0279 10.4227C11.0068 10.2149 10.991 10.003 10.9799 9.78815C10.9689 9.57335 10.9636 9.35327 10.9636 9.13223C10.9636 8.91119 10.9691 8.69327 10.9799 8.47751C10.9907 8.26175 11.0063 8.05079 11.0279 7.84271C11.0759 7.34851 11.1589 6.85832 11.2761 6.37583C11.3151 6.21663 11.3579 6.06231 11.4045 5.91287C11.4595 5.73503 11.5195 5.56463 11.5843 5.40287C12.0122 4.33343 12.6083 3.74423 13.2643 3.74423H13.2676C13.3177 3.74413 13.3665 3.75984 13.4071 3.78911C13.2925 3.91346 13.2127 4.06589 13.1759 4.23095C12.7658 4.29287 12.3535 4.77719 12.0319 5.58119C11.9744 5.72519 11.9211 5.87583 11.8718 6.03311C11.8251 6.18143 11.782 6.33543 11.7427 6.49511C11.6629 6.82103 11.6004 7.15093 11.5555 7.48343C11.5273 7.68647 11.5047 7.89447 11.4875 8.10743C11.4599 8.44079 11.446 8.78399 11.446 9.13295C11.446 9.48191 11.4599 9.82559 11.4875 10.1592C11.5048 10.3711 11.5276 10.5792 11.5555 10.7832C11.6004 11.1155 11.6629 11.4453 11.7427 11.771C11.7817 11.931 11.8247 12.085 11.8718 12.233C11.9211 12.3905 11.9744 12.5411 12.0319 12.685C12.3767 13.5473 12.8263 14.0419 13.2652 14.0419C13.7042 14.0419 14.1532 13.5473 14.4983 12.685C14.5559 12.541 14.6095 12.3901 14.6589 12.2323C14.7058 12.084 14.7488 11.9301 14.788 11.7706C14.8676 11.4449 14.93 11.1154 14.975 10.7832C15.0028 10.5804 15.0256 10.3723 15.0429 10.1592C15.0705 9.82559 15.0844 9.48215 15.0844 9.13295C15.0844 8.78375 15.07 8.44079 15.0422 8.10623C15.0249 7.89431 15.0019 7.68623 14.9735 7.48223C14.9285 7.15027 14.8662 6.82087 14.7871 6.49535C14.7479 6.33535 14.7051 6.18127 14.6587 6.03311C14.5873 5.80268 14.5018 5.57689 14.4026 5.35703C14.5563 5.30843 14.6953 5.22203 14.807 5.10575C14.8198 5.12142 14.8305 5.13868 14.8389 5.15711C14.9498 5.40267 15.0448 5.65511 15.1233 5.91287C15.1694 6.06183 15.212 6.21623 15.2512 6.37607C15.368 6.8577 15.451 7.34689 15.4996 7.84007C15.5207 8.04807 15.5367 8.25967 15.5476 8.47487C15.5579 8.69231 15.5635 8.91167 15.5635 9.13223Z" fill="#D32F2F"/>
<path d="M8.77701 11.7036C9.30747 11.7036 9.73749 11.2736 9.73749 10.7431C9.73749 10.2127 9.30747 9.78264 8.77701 9.78264C8.24655 9.78264 7.81653 10.2127 7.81653 10.7431C7.81653 11.2736 8.24655 11.7036 8.77701 11.7036Z" fill="#FF9100"/>
<path d="M16.903 13.1734C17.4334 13.1734 17.8635 12.7433 17.8635 12.2129C17.8635 11.6824 17.4334 11.2524 16.903 11.2524C16.3725 11.2524 15.9425 11.6824 15.9425 12.2129C15.9425 12.7433 16.3725 13.1734 16.903 13.1734Z" fill="#00838F"/>
<path d="M14.1129 5.4012C14.6434 5.4012 15.0734 4.97118 15.0734 4.44072C15.0734 3.91026 14.6434 3.48024 14.1129 3.48024C13.5825 3.48024 13.1525 3.91026 13.1525 4.44072C13.1525 4.97118 13.5825 5.4012 14.1129 5.4012Z" fill="#930202"/>
<path d="M19.5708 21.708C19.6786 21.8882 19.7938 22.0536 19.8967 22.2H5.784C5.48671 22.2 5.19472 22.1212 4.93786 21.9715C4.68099 21.8218 4.46845 21.6067 4.32192 21.348C4.26554 21.249 4.21961 21.1445 4.18488 21.036C4.14706 20.9191 4.12235 20.7984 4.1112 20.676C4.1064 20.6246 4.104 20.5726 4.104 20.52C4.104 20.4674 4.1064 20.4154 4.1112 20.364C4.12235 20.2416 4.14706 20.1209 4.18488 20.004C4.21961 19.8955 4.26554 19.791 4.32192 19.692C4.46845 19.4333 4.68099 19.2182 4.93786 19.0685C5.19472 18.9188 5.48671 18.8399 5.784 18.84H19.896C19.7933 18.9864 19.6781 19.152 19.5703 19.332C19.5004 19.4483 19.4371 19.5685 19.3807 19.692C19.3344 19.7932 19.2951 19.8975 19.2629 20.004C19.2271 20.1213 19.2029 20.2419 19.1909 20.364C19.1858 20.4156 19.1832 20.4674 19.1832 20.52C19.1832 20.5726 19.1858 20.6244 19.1909 20.676C19.2029 20.7981 19.2271 20.9187 19.2629 21.036C19.2951 21.1425 19.3344 21.2468 19.3807 21.348C19.4372 21.4715 19.5007 21.5917 19.5708 21.708Z" fill="#E0E0E0"/>
<path d="M19.571 19.332C19.5011 19.4483 19.4378 19.5685 19.3814 19.692H4.32117C4.39588 19.5602 4.48807 19.4391 4.59525 19.332H19.571Z" fill="#757575"/>
<path d="M19.2636 20.004C19.2278 20.1213 19.2037 20.2419 19.1916 20.364H4.11047C4.12162 20.2416 4.14633 20.1209 4.18415 20.004H19.2636Z" fill="#757575"/>
<path d="M19.2636 21.036H4.18415C4.14633 20.9191 4.12162 20.7984 4.11047 20.676H19.1914C19.2035 20.7981 19.2277 20.9187 19.2636 21.036Z" fill="#757575"/>
<path d="M19.5708 21.708H4.59476C4.48758 21.6009 4.39539 21.4798 4.32068 21.348H19.3814C19.4377 21.4715 19.5009 21.5917 19.5708 21.708Z" fill="#757575"/>
</svg>
