<svg width="56" height="56" viewBox="0 0 56 56" fill="none" xmlns="http://www.w3.org/2000/svg">
<path d="M28 56C43.464 56 56 43.464 56 28C56 12.536 43.464 0 28 0C12.536 0 0 12.536 0 28C0 43.464 12.536 56 28 56Z" fill="url(#paint0_linear_12001_2597)"/>
<g opacity="0.5">
<path d="M33.2613 6.57003C33.1307 6.57003 32.998 6.5498 32.8673 6.50824C32.2262 6.3037 31.566 6.12542 30.9047 5.97853C30.2059 5.82311 29.7653 5.13088 29.9213 4.43153C30.0752 3.73274 30.7628 3.28867 31.4677 3.4477C32.2039 3.61122 32.9402 3.81028 33.6552 4.03811C34.3367 4.25588 34.7135 4.98497 34.4958 5.66714C34.3206 6.21817 33.8101 6.57003 33.2613 6.57003Z" fill="#FFF7ED"/>
<path d="M46.6081 17.2782C46.1625 17.2782 45.7291 17.0483 45.488 16.6362C43.5152 13.2613 40.6867 10.4403 37.3061 8.47813C36.6874 8.11862 36.4767 7.3251 36.8362 6.70637C37.1967 6.08709 37.9868 5.8749 38.6086 6.23595C42.3749 8.4229 45.5275 11.567 47.7262 15.3277C48.0878 15.946 47.8791 16.74 47.2613 17.101C47.0557 17.2216 46.8309 17.2782 46.6081 17.2782Z" fill="#FFF7ED"/>
</g>
<g clip-path="url(#clip0_12001_2597)">
<path d="M22.0469 20.8376L24.1281 21.9766C24.3953 22.1219 24.4938 22.4547 24.3485 22.7219C24.2969 22.8157 24.2219 22.8907 24.1281 22.9422L22.0469 24.0766C21.9531 24.1282 21.8781 24.2032 21.8266 24.2969L20.6875 26.3782C20.5422 26.6454 20.2094 26.7438 19.9422 26.5985C19.8485 26.5469 19.7735 26.4719 19.7219 26.3782L18.5875 24.2969C18.536 24.2032 18.461 24.1282 18.3672 24.0766L16.286 22.9422C16.0188 22.7969 15.9203 22.4641 16.0656 22.1969C16.1172 22.1032 16.1922 22.0282 16.286 21.9766L18.3672 20.8376C18.461 20.786 18.536 20.711 18.5875 20.6172L19.7266 18.5407C19.8719 18.2735 20.2094 18.1751 20.4766 18.3251C20.5656 18.3766 20.6406 18.4516 20.6922 18.5407L21.8313 20.6172C21.8781 20.711 21.9531 20.786 22.0469 20.8376Z" fill="white"/>
<path d="M37.5391 31.9469L39.6203 33.086C39.8875 33.2313 39.986 33.5641 39.8406 33.8313C39.7891 33.9251 39.7141 34.0001 39.6203 34.0516L37.5391 35.1907C37.4453 35.2423 37.3703 35.3173 37.3188 35.411L36.1797 37.4923C36.0344 37.7594 35.6969 37.8579 35.4297 37.7126C35.336 37.661 35.261 37.586 35.2094 37.4923L34.0797 35.4063C34.0281 35.3126 33.9531 35.2376 33.8594 35.186L31.7781 34.0469C31.511 33.9016 31.4125 33.5641 31.5578 33.2969C31.6094 33.2032 31.6844 33.1282 31.7781 33.0766L33.8594 31.9376C33.9531 31.886 34.0281 31.811 34.0797 31.7173L35.2188 29.6407C35.3641 29.3735 35.7016 29.2751 35.9688 29.4204C36.0625 29.4719 36.1375 29.5469 36.1891 29.6407L37.3281 31.7219C37.3703 31.8204 37.4453 31.8954 37.5391 31.9469Z" fill="white"/>
<path d="M28.5297 18.4563L29.8938 19.2016C30.0672 19.3 30.1329 19.5203 30.0391 19.6938C30.0063 19.7547 29.9547 19.8016 29.8938 19.8391L28.5297 20.5844C28.4688 20.6172 28.4172 20.6688 28.3844 20.7297L27.6391 22.0938C27.5407 22.2672 27.3204 22.3328 27.1469 22.2391C27.086 22.2063 27.0391 22.1547 27.0016 22.0938L26.2563 20.7297C26.2235 20.6688 26.1719 20.6172 26.111 20.5844L24.7469 19.8391C24.5735 19.7453 24.5079 19.525 24.6016 19.3469C24.6344 19.2859 24.686 19.2344 24.7469 19.2016L26.111 18.4563C26.1719 18.4234 26.2235 18.3719 26.2563 18.3109L27.0016 16.9469C27.1001 16.7734 27.3204 16.7078 27.4938 16.8016C27.5547 16.8344 27.6016 16.8859 27.6391 16.9469L28.3844 18.3109C28.4172 18.3719 28.4688 18.4234 28.5297 18.4563Z" fill="white"/>
<path d="M39.4656 19.0797L37.539 17.1532C36.8265 16.4407 35.6687 16.436 34.9515 17.1485C34.9515 17.1485 34.9515 17.1485 34.9469 17.1532L17.7719 34.3329C17.0594 35.0454 17.0547 36.2032 17.7719 36.9204L19.6984 38.8469C20.4109 39.5594 21.5687 39.5641 22.2859 38.8469L39.4656 21.6672C40.1781 20.9547 40.1781 19.7969 39.4656 19.0797ZM32.7672 25.5766L31.0422 23.8516L36.1281 18.761L37.8531 20.486L32.7672 25.5766Z" fill="white"/>
</g>
<defs>
<linearGradient id="paint0_linear_12001_2597" x1="4.28342e-08" y1="13.3913" x2="58.3825" y2="15.7548" gradientUnits="userSpaceOnUse">
<stop stop-color="#FFA800"/>
<stop offset="1" stop-color="#FF6B00"/>
</linearGradient>
<clipPath id="clip0_12001_2597">
<rect width="24" height="24" fill="white" transform="translate(16 16)"/>
</clipPath>
</defs>
</svg>
