<svg width="28" height="28" viewBox="0 0 28 28" fill="none" xmlns="http://www.w3.org/2000/svg">
<path d="M25.2759 25.7139L13.9884 21.0709C13.6767 20.9451 13.5728 20.5678 13.7587 20.2506C14.2837 19.3647 15.3884 17.642 16.7884 16.242C18.1447 14.8858 19.7907 13.8467 20.6493 13.349C20.9611 13.1686 21.3329 13.2779 21.4587 13.5842L26.1072 24.8826C26.3095 25.3748 25.7626 25.9162 25.2759 25.7139Z" fill="#FCB424"/>
<path d="M13.7048 20.7376C14.0384 21.0712 16.029 19.7969 18.1071 17.7188C20.1852 15.6407 21.4595 13.6446 21.1313 13.311C20.7977 12.9774 18.7962 14.2407 16.7126 16.3243C14.629 18.4079 13.3766 20.4094 13.7048 20.7376Z" fill="#D67909"/>
<path d="M20.584 23.7836L23.2199 24.8719L25.2598 22.8265L24.177 20.1906L20.584 23.7836Z" fill="#ED3F03"/>
<path d="M15.8047 21.8205L18.4406 22.9033L23.2969 18.0471L22.2141 15.4111L15.8047 21.8205Z" fill="#ED3F03"/>
<path d="M22.05 7.19102C21.603 7.19102 21.2406 6.82865 21.2406 6.38164C21.2406 5.93463 21.603 5.57227 22.05 5.57227C22.497 5.57227 22.8594 5.93463 22.8594 6.38164C22.8594 6.82865 22.497 7.19102 22.05 7.19102Z" fill="#FCB424"/>
<path d="M22.05 2.13281C21.6016 2.13281 21.2406 2.49375 21.2406 2.94219V4.42969C21.2406 4.87813 21.6016 5.23906 22.05 5.23906C22.493 5.23906 22.8594 4.87813 22.8594 4.42969V2.94219C22.8594 2.49375 22.493 2.13281 22.05 2.13281Z" fill="#FCB424"/>
<path d="M25.4895 5.57227H24.002C23.5535 5.57227 23.1926 5.9332 23.1926 6.38164C23.1926 6.83008 23.5535 7.19102 24.002 7.19102H25.4895C25.9379 7.19102 26.2988 6.83008 26.2988 6.38164C26.2988 5.9332 25.9379 5.57227 25.4895 5.57227Z" fill="#FCB424"/>
<path d="M22.05 7.52539C21.6016 7.52539 21.2406 7.88633 21.2406 8.33476V9.82227C21.2406 10.2707 21.6016 10.6316 22.05 10.6316C22.4984 10.6316 22.8594 10.2707 22.8594 9.82227V8.33476C22.8594 7.88633 22.493 7.52539 22.05 7.52539Z" fill="#FCB424"/>
<path d="M20.0969 5.57227H18.6094C18.1609 5.57227 17.8 5.9332 17.8 6.38164C17.8 6.83008 18.1609 7.19102 18.6094 7.19102H20.0969C20.5453 7.19102 20.9062 6.83008 20.9062 6.38164C20.9062 5.9332 20.5453 5.57227 20.0969 5.57227Z" fill="#FCB424"/>
<path d="M4.75703 21.9957C4.31003 21.9957 3.94766 21.6333 3.94766 21.1863C3.94766 20.7393 4.31003 20.377 4.75703 20.377C5.20404 20.377 5.56641 20.7393 5.56641 21.1863C5.56641 21.6333 5.20404 21.9957 4.75703 21.9957Z" fill="#00C853"/>
<path d="M4.75703 16.9365C4.30859 16.9365 3.94766 17.2975 3.94766 17.7459V19.2334C3.94766 19.6818 4.30859 20.0428 4.75703 20.0428C5.20547 20.0428 5.56641 19.6818 5.56641 19.2334V17.7459C5.56641 17.2975 5.20547 16.9365 4.75703 16.9365Z" fill="#00C853"/>
<path d="M8.19746 20.377H6.70996C6.26152 20.377 5.90058 20.7379 5.90058 21.1863C5.90058 21.6348 6.26152 21.9957 6.70996 21.9957H8.19746C8.6459 21.9957 9.00684 21.6348 9.00684 21.1863C9.00684 20.7379 8.6459 20.377 8.19746 20.377Z" fill="#00C853"/>
<path d="M4.75703 22.3291C4.30859 22.3291 3.94766 22.69 3.94766 23.1385V24.626C3.94766 25.0744 4.30859 25.4354 4.75703 25.4354C5.20547 25.4354 5.56641 25.0744 5.56641 24.626V23.1385C5.56641 22.69 5.20547 22.3291 4.75703 22.3291Z" fill="#00C853"/>
<path d="M2.80488 20.377H1.31738C0.868945 20.377 0.508007 20.7379 0.508007 21.1863C0.508007 21.6348 0.868945 21.9957 1.31738 21.9957H2.80488C3.25332 21.9957 3.61426 21.6348 3.61426 21.1863C3.61426 20.7379 3.25332 20.377 2.80488 20.377Z" fill="#00C853"/>
<path d="M5.90058 6.04844C5.45358 6.04844 5.09121 5.68607 5.09121 5.23906C5.09121 4.79206 5.45358 4.42969 5.90058 4.42969C6.34759 4.42969 6.70996 4.79206 6.70996 5.23906C6.70996 5.68607 6.34759 6.04844 5.90058 6.04844Z" fill="#07B7EE"/>
<path d="M5.90058 0.990234C5.45215 0.990234 5.09121 1.35117 5.09121 1.79961V3.28711C5.09121 3.73555 5.45215 4.09648 5.90058 4.09648C6.34902 4.09648 6.70996 3.73555 6.70996 3.28711V1.79961C6.70996 1.35117 6.34355 0.990234 5.90058 0.990234Z" fill="#07B7EE"/>
<path d="M10.1494 5.23906C10.1494 4.79063 9.78848 4.42969 9.34004 4.42969H7.85254C7.4041 4.42969 7.04316 4.79063 7.04316 5.23906C7.04316 5.6875 7.4041 6.04844 7.85254 6.04844H9.34004C9.78301 6.04844 10.1494 5.6875 10.1494 5.23906Z" fill="#07B7EE"/>
<path d="M5.90058 9.48827C6.34902 9.48827 6.70996 9.12733 6.70996 8.67889V7.19139C6.70996 6.74296 6.34902 6.38202 5.90058 6.38202C5.45215 6.38202 5.09121 6.74296 5.09121 7.19139V8.67889C5.08574 9.12733 5.45215 9.48827 5.90058 9.48827Z" fill="#07B7EE"/>
<path d="M1.6457 5.23906C1.6457 5.6875 2.00664 6.04844 2.45508 6.04844H3.94258C4.39102 6.04844 4.75195 5.6875 4.75195 5.23906C4.75195 4.79063 4.39102 4.42969 3.94258 4.42969H2.45508C2.01211 4.42969 1.6457 4.79063 1.6457 5.23906Z" fill="#07B7EE"/>
<path d="M18.8287 16.6086C19.2444 16.45 19.4577 15.9852 19.2991 15.5641C19.2225 15.3672 19.0803 15.2086 18.8889 15.1211C18.1834 14.7875 17.3194 14.2406 17.21 13.5242C17.1061 12.8625 17.6694 12.1625 17.91 11.9383C18.167 11.725 19.5998 10.4289 19.2662 8.98517C19.042 8.02267 18.1342 7.33908 16.5647 6.96173C15.5256 6.71017 15.0991 6.38205 15.0498 6.15236C14.9733 5.8133 15.4819 5.17892 15.8702 4.86173C16.2147 4.57736 16.2639 4.06876 15.9795 3.72423C15.7006 3.38517 15.1975 3.33048 14.853 3.60392C14.678 3.74611 13.1467 5.03673 13.4748 6.50236C13.6936 7.46486 14.6014 8.14298 16.1873 8.5258C17.2155 8.77189 17.642 9.11095 17.6967 9.34064C17.7787 9.69611 17.2537 10.3742 16.86 10.7078L16.8327 10.7297C16.7725 10.7844 15.367 12.0914 15.6186 13.7539C15.7881 14.8969 16.6631 15.843 18.2053 16.5758C18.3967 16.6797 18.6264 16.6852 18.8287 16.6086Z" fill="#00C853"/>
<path d="M8.65131 27.9453C8.84272 28.0164 9.05053 28.0219 9.24741 27.9562C9.64116 27.8195 9.79428 27.4094 9.59194 27.0484C9.24194 26.4195 8.89741 25.5555 9.23647 25.0414C9.55366 24.5656 10.4122 24.4617 10.7349 24.4617C11.063 24.4781 12.9607 24.5219 13.5677 23.4172C13.9724 22.6789 13.6716 21.7055 12.6763 20.5297C12.0201 19.7531 11.8833 19.2883 11.9763 19.1187C12.1185 18.8617 12.9005 18.7633 13.3872 18.7961C13.8247 18.8289 14.1748 18.5391 14.1638 18.1562C14.1529 17.7734 13.7865 17.4344 13.349 17.4016C13.1248 17.3851 11.1615 17.2812 10.5326 18.3969C10.1224 19.1297 10.4287 20.1031 11.4349 21.2898C12.0857 22.0609 12.2169 22.5258 12.1185 22.7008C11.9708 22.9742 11.156 23.0836 10.6474 23.0562H10.6091C10.5271 23.0562 8.65131 23.0344 7.84741 24.2266C7.29506 25.0469 7.40444 26.1625 8.17006 27.5461C8.28491 27.7375 8.45444 27.8742 8.65131 27.9453Z" fill="#FCB424"/>
<path d="M13.0481 16.2911C13.4801 16.2747 13.8137 15.9083 13.7973 15.4763C13.7918 15.2903 13.7152 15.1099 13.5895 14.9731C13.5457 14.9239 12.4793 13.7919 10.4996 12.7966C9.34024 12.2169 8.10977 11.8013 6.83555 11.5606C5.2004 11.2599 3.52696 11.2325 1.88633 11.4786C1.45977 11.5388 1.16446 11.938 1.22462 12.3646C1.28477 12.7911 1.68399 13.0864 2.11055 13.0263C4.84493 12.6271 7.40977 13.0099 9.73399 14.1638C11.484 15.0278 12.4301 16.0286 12.441 16.0341C12.5941 16.2146 12.8184 16.3021 13.0481 16.2911Z" fill="#9266CC"/>
<path d="M24.1497 17.719C24.2263 17.719 24.3028 17.7081 24.3739 17.6862C24.7895 17.5604 25.0247 17.1284 24.8989 16.7128C24.62 15.7393 24.4122 14.744 24.2645 13.7378C23.9802 11.6815 24.2481 10.6534 24.5872 10.3745C24.8606 10.1503 25.5005 10.2815 26.3317 10.73C26.7145 10.9378 27.1903 10.7956 27.3927 10.4128C27.6005 10.03 27.4583 9.55418 27.0755 9.35184C25.5934 8.54793 24.4231 8.4823 23.5973 9.15496C22.6622 9.91512 22.3723 11.4901 22.7169 13.9675C22.87 15.0448 23.0997 16.1112 23.4005 17.1557C23.4989 17.4893 23.8052 17.719 24.1497 17.719Z" fill="#9266CC"/>
<path d="M11.1391 11.0305C10.5924 11.0305 10.1492 10.5873 10.1492 10.0406C10.1492 9.49395 10.5924 9.05078 11.1391 9.05078C11.6857 9.05078 12.1289 9.49395 12.1289 10.0406C12.1289 10.5873 11.6857 11.0305 11.1391 11.0305Z" fill="#FCB424"/>
<path d="M12.1293 1.97969C11.5826 1.97969 11.1395 1.53652 11.1395 0.989844C11.1395 0.443168 11.5826 0 12.1293 0C12.676 0 13.1191 0.443168 13.1191 0.989844C13.1191 1.53652 12.676 1.97969 12.1293 1.97969Z" fill="#ED3F03"/>
<path d="M16.3893 25.9871C15.7731 25.9871 15.2736 25.4876 15.2736 24.8715C15.2736 24.2553 15.7731 23.7559 16.3893 23.7559C17.0054 23.7559 17.5049 24.2553 17.5049 24.8715C17.5049 25.4876 17.0054 25.9871 16.3893 25.9871Z" fill="#9266CC"/>
<path d="M7.03789 16.6633C6.60901 16.6633 6.26133 16.3156 6.26133 15.8867C6.26133 15.4578 6.60901 15.1102 7.03789 15.1102C7.46678 15.1102 7.81445 15.4578 7.81445 15.8867C7.81445 16.3156 7.46678 16.6633 7.03789 16.6633Z" fill="#07B7EE"/>
<path d="M2.06152 2.82733C1.59338 2.82733 1.21387 2.44782 1.21387 1.97968C1.21387 1.51153 1.59338 1.13202 2.06152 1.13202C2.52967 1.13202 2.90918 1.51153 2.90918 1.97968C2.90918 2.44782 2.52967 2.82733 2.06152 2.82733Z" fill="#9266CC"/>
</svg>
