<svg width="56" height="56" viewBox="0 0 56 56" fill="none" xmlns="http://www.w3.org/2000/svg">
<g clip-path="url(#clip0_11002_2512)">
<path d="M28 56C43.464 56 56 43.464 56 28C56 12.536 43.464 0 28 0C12.536 0 0 12.536 0 28C0 43.464 12.536 56 28 56Z" fill="url(#paint0_linear_11002_2512)"/>
<path d="M40.0148 26.6343L22.0041 16.8103C20.9675 16.2449 19.7036 16.9951 19.7036 18.1759V37.8241C19.7036 39.0049 20.9674 39.7551 22.0041 39.1897L40.0148 29.3657C41.0958 28.776 41.0958 27.224 40.0148 26.6343Z" fill="white"/>
<g opacity="0.5">
<path d="M35.2613 6.57015C35.1307 6.57015 34.998 6.54992 34.8673 6.50836C34.2263 6.30383 33.566 6.12555 32.9047 5.97865C32.2059 5.82323 31.7653 5.131 31.9213 4.43165C32.0752 3.73286 32.7628 3.2888 33.4678 3.44783C34.204 3.61134 34.9403 3.8104 35.6553 4.03823C36.3368 4.256 36.7136 4.98509 36.4958 5.66726C36.3206 6.2183 35.8101 6.57015 35.2613 6.57015Z" fill="#FFF7ED"/>
<path d="M48.6081 17.2782C48.1625 17.2782 47.7291 17.0483 47.488 16.6362C45.5152 13.2613 42.6866 10.4403 39.3061 8.47813C38.6873 8.11862 38.4767 7.3251 38.8362 6.70637C39.1967 6.08709 39.9867 5.8749 40.6085 6.23595C44.3749 8.4229 47.5275 11.567 49.7261 15.3277C50.0877 15.946 49.879 16.74 49.2613 17.101C49.0557 17.2216 48.8309 17.2782 48.6081 17.2782Z" fill="#FFF7ED"/>
</g>
</g>
<defs>
<linearGradient id="paint0_linear_11002_2512" x1="4.28342e-08" y1="13.3913" x2="58.3825" y2="15.7548" gradientUnits="userSpaceOnUse">
<stop stop-color="#FFA800"/>
<stop offset="1" stop-color="#FF6B00"/>
</linearGradient>
<clipPath id="clip0_11002_2512">
<rect width="56" height="56" fill="white"/>
</clipPath>
</defs>
</svg>
