<svg width="24" height="24" viewBox="0 0 24 24" fill="none" xmlns="http://www.w3.org/2000/svg">
<g clip-path="url(#clip0_9793_12942)">
<mask id="mask0_9793_12942" style="mask-type:luminance" maskUnits="userSpaceOnUse" x="0" y="0" width="24" height="24">
<path d="M0 1.90735e-06H24V24H0V1.90735e-06Z" fill="white"/>
</mask>
<g mask="url(#mask0_9793_12942)">
<path d="M21.3553 9.24188C21.1457 7.04859 19.1784 5.4375 16.9748 5.4375H12.9375L13.875 9.1875C13.875 9.19172 13.875 9.19594 13.8745 9.20011H13.875C14.3724 9.18094 14.6703 9.18966 15.2812 9.1875C16.0579 9.1875 16.6875 9.81703 16.6875 10.5938C16.6875 11.3705 16.0579 12 15.2812 12H6.97731C6.37825 12 5.80544 12.2105 5.362 12.5681L4.54731 13.8736V13.8741C4.53184 13.9486 4.51965 14.0245 4.51215 14.1019C4.37153 15.5048 5.46981 16.6875 6.84372 16.6875C7.28809 16.6875 7.70387 16.5637 8.05778 16.3491C8.98075 15.7889 10.1747 15.7551 11.0367 16.4053C11.5795 16.815 12 17.4806 12 18.5625C13.0336 18.5625 13.8722 17.7258 13.875 16.6931C13.8792 15.1373 15.1317 13.875 16.6875 13.875H17.1562C19.6228 13.875 21.5953 11.7581 21.3553 9.24188Z" fill="#FFEE80"/>
<path d="M10.0001 1.46439C10.0629 1.45028 10.1178 1.43997 10.1623 1.43435C9.37246 0.828722 8.38433 0.468769 7.3123 0.468769C4.39386 0.468769 2.09886 3.13549 2.73027 6.16497C3.09964 7.93736 4.53308 9.37033 6.30589 9.73877C7.0738 9.89847 7.73024 9.86505 8.41246 9.71533L9.65089 4.97388C8.22308 4.28814 8.17011 1.88388 10.0001 1.46439Z" fill="#FFEE80"/>
<path d="M21.6562 20.7188L22.5937 22.5938H13.875L12.9375 23.5313H11.0625L10.125 22.5938H1.40625L2.34375 20.7188C3.59016 20.7188 5.11359 20.5828 6.33047 20.3128C8.13441 19.9363 8.45109 19.7813 9.1875 19.7813C10.7409 19.7813 12 20.6208 12 21.6563C12 20.6208 13.2591 19.7813 14.8125 19.7813C15.5487 19.7813 15.864 19.936 17.6695 20.3128C18.8864 20.5828 20.4098 20.7188 21.6562 20.7188Z" fill="#EEFAFF"/>
<path d="M19.5 0.46875C20.018 0.46875 20.4375 0.888281 20.4375 1.40625C20.4375 1.92422 20.018 2.34375 19.5 2.34375C18.982 2.34375 18.5625 1.92422 18.5625 1.40625C18.5625 0.888281 18.982 0.46875 19.5 0.46875Z" fill="#FFEE80"/>
<path d="M16.6875 2.34375H12.9375L14.8125 0.46875L16.6875 2.34375Z" fill="#FF9256"/>
<path d="M15.75 5.4375H13.875V2.34375H15.75V5.4375Z" fill="#EEFAFF"/>
<path d="M14.8125 7.3125H7.3125C7.674 6.951 10.4018 4.22316 11.0625 3.5625C12.0727 4.57275 14.224 6.72403 14.8125 7.3125Z" fill="#FF9256"/>
<path d="M8.25 7.3125V9.1875C8.25 9.70416 8.66864 10.125 9.1875 10.125V12H12.9375V10.125C13.4513 10.125 13.868 9.7125 13.8745 9.20016C13.875 9.19594 13.875 9.19172 13.875 9.1875V7.3125H8.25Z" fill="#EEFAFF"/>
<path d="M5.4375 12.9375C5.4375 13.4576 5.01572 13.875 4.5 13.875C3.98203 13.875 3.5625 13.4555 3.5625 12.9375C3.5625 12.4195 3.98203 12 4.5 12C5.01787 12 5.4375 12.4195 5.4375 12.9375Z" fill="#EEFAFF"/>
<path d="M20.4375 14.3438C20.6962 14.3438 20.9062 14.5538 20.9062 14.8125C20.9062 15.0713 20.6962 15.2812 20.4375 15.2812C20.1787 15.2812 19.9688 15.0713 19.9688 14.8125C19.9688 14.5538 20.1787 14.3438 20.4375 14.3438Z" fill="black"/>
<path d="M6.375 4.03125C6.63375 4.03125 6.84375 4.24125 6.84375 4.5C6.84375 4.75875 6.63375 4.96875 6.375 4.96875C6.11625 4.96875 5.90625 4.75875 5.90625 4.5C5.90625 4.24125 6.11625 4.03125 6.375 4.03125Z" fill="black"/>
<path d="M2.625 15.2813C2.88375 15.2813 3.09375 15.4913 3.09375 15.75C3.09375 16.0088 2.88375 16.2188 2.625 16.2188C2.36625 16.2188 2.15625 16.0088 2.15625 15.75C2.15625 15.4913 2.36625 15.2813 2.625 15.2813Z" fill="black"/>
<path d="M12 21.6562C12 20.6208 10.7409 19.7812 9.1875 19.7812C8.87719 19.7812 8.57859 19.8145 8.29969 19.8764L6.33047 20.3128C5.11359 20.5828 3.59016 20.7188 2.34375 20.7188L1.40625 22.5938" stroke="black" stroke-width="0.8" stroke-miterlimit="10" stroke-linecap="round" stroke-linejoin="round"/>
<path d="M22.5937 22.5937L21.6562 20.7187C20.4098 20.7187 18.8864 20.5828 17.6695 20.3128L15.7003 19.8764C15.4214 19.8145 15.1228 19.7812 14.8125 19.7812C13.2591 19.7812 12 20.6208 12 21.6562" stroke="black" stroke-width="0.8" stroke-miterlimit="10" stroke-linecap="round" stroke-linejoin="round"/>
<path d="M8.25 7.3125H7.3125L9.65109 4.97391L11.0625 3.5625L12.9375 5.4375L14.8125 7.3125H13.875H8.25Z" stroke="black" stroke-width="0.8" stroke-miterlimit="10" stroke-linecap="round" stroke-linejoin="round"/>
<path d="M8.25 7.3125V9.1875C8.25 9.38344 8.31 9.56484 8.41266 9.71531C8.58141 9.96281 8.86547 10.125 9.1875 10.125H10.125H12H12.9375C13.4513 10.125 13.868 9.7125 13.8745 9.20016C13.875 9.19594 13.875 9.19172 13.875 9.1875V7.3125" stroke="black" stroke-width="0.8" stroke-miterlimit="10" stroke-linecap="round" stroke-linejoin="round"/>
<path d="M12.9375 5.4375H13.875H15.75H16.9748C19.1784 5.4375 21.1457 7.04859 21.3553 9.24188C21.5953 11.7581 19.6228 13.875 17.1562 13.875H16.6875C15.1317 13.875 13.8792 15.1373 13.875 16.6931C13.8722 17.7258 13.0336 18.5625 12 18.5625C12 17.4806 11.5795 16.815 11.0367 16.4053C10.1747 15.7552 8.98075 15.7889 8.05778 16.3491C7.70387 16.5638 7.28809 16.6875 6.84372 16.6875C5.46981 16.6875 4.37153 15.5048 4.51215 14.1019C4.51965 14.0245 4.53184 13.9486 4.54731 13.8741" stroke="black" stroke-width="0.8" stroke-miterlimit="10" stroke-linecap="round" stroke-linejoin="round"/>
<path d="M5.36182 12.5681C5.80525 12.2105 6.37807 12 6.97713 12H9.18728H12.9373H15.281C16.0578 12 16.6873 11.3705 16.6873 10.5937C16.6873 9.81702 16.0578 9.18749 15.281 9.18749H14.5334C14.3135 9.18749 14.0937 9.19171 13.8748 9.2001" stroke="black" stroke-width="0.8" stroke-miterlimit="10" stroke-linecap="round" stroke-linejoin="round"/>
<path d="M12.9375 10.125V12" stroke="black" stroke-width="0.8" stroke-miterlimit="10" stroke-linecap="round" stroke-linejoin="round"/>
<path d="M9.1875 12V10.125" stroke="black" stroke-width="0.8" stroke-miterlimit="10" stroke-linecap="round" stroke-linejoin="round"/>
<path d="M8.41246 9.71531C8.37402 9.72379 8.33558 9.73176 8.29714 9.74015C7.67042 9.87426 6.99777 9.88265 6.30589 9.73874C4.53308 9.37035 3.09964 7.93734 2.73027 6.16499C2.09886 3.13546 4.39386 0.468745 7.3123 0.468745C8.38433 0.468745 9.37246 0.828745 10.1623 1.43437C10.1178 1.43999 10.0629 1.45035 10.0001 1.46437C8.17011 1.88395 8.22308 4.28817 9.65089 4.97395" stroke="black" stroke-width="0.8" stroke-miterlimit="10" stroke-linecap="round" stroke-linejoin="round"/>
<path d="M12.9375 2.34375L14.8125 0.46875L16.6875 2.34375H15.75H13.875H12.9375Z" stroke="black" stroke-width="0.8" stroke-miterlimit="10" stroke-linecap="round" stroke-linejoin="round"/>
<path d="M15.75 2.34375V5.4375" stroke="black" stroke-width="0.8" stroke-miterlimit="10" stroke-linecap="round" stroke-linejoin="round"/>
<path d="M13.875 5.4375V2.34375" stroke="black" stroke-width="0.8" stroke-miterlimit="10" stroke-linecap="round" stroke-linejoin="round"/>
<path d="M10.125 9.1875V10.125" stroke="black" stroke-width="0.8" stroke-miterlimit="10" stroke-linecap="round" stroke-linejoin="round"/>
<path d="M12 9.1875V10.125" stroke="black" stroke-width="0.8" stroke-miterlimit="10" stroke-linecap="round" stroke-linejoin="round"/>
<path d="M22.5938 4.21875V5.15625V6.09375" stroke="black" stroke-width="0.8" stroke-miterlimit="10" stroke-linecap="round" stroke-linejoin="round"/>
<path d="M21.6562 5.15625H22.5937H23.5312" stroke="black" stroke-width="0.8" stroke-miterlimit="10" stroke-linecap="round" stroke-linejoin="round"/>
<path d="M17.625 15.75V16.6875V17.625" stroke="black" stroke-width="0.8" stroke-miterlimit="10" stroke-linecap="round" stroke-linejoin="round"/>
<path d="M16.6875 16.6875H17.625H18.5625" stroke="black" stroke-width="0.8" stroke-miterlimit="10" stroke-linecap="round" stroke-linejoin="round"/>
<path d="M1.40625 9.1875V10.125V11.0625" stroke="black" stroke-width="0.8" stroke-miterlimit="10" stroke-linecap="round" stroke-linejoin="round"/>
<path d="M0.46875 10.125H1.40625H2.34375" stroke="black" stroke-width="0.8" stroke-miterlimit="10" stroke-linecap="round" stroke-linejoin="round"/>
<path d="M5.36203 12.5681C5.41031 12.6816 5.4375 12.8063 5.4375 12.9375C5.4375 13.4395 5.04328 13.8492 4.54734 13.8736C4.53141 13.8745 4.51594 13.875 4.5 13.875C3.98203 13.875 3.5625 13.4555 3.5625 12.9375C3.5625 12.4195 3.98203 12 4.5 12C4.88672 12 5.21859 12.2339 5.36203 12.5681Z" stroke="black" stroke-width="0.8" stroke-miterlimit="10" stroke-linecap="round" stroke-linejoin="round"/>
<path d="M18.5625 1.40625C18.5625 1.92422 18.982 2.34375 19.5 2.34375C20.018 2.34375 20.4375 1.92422 20.4375 1.40625C20.4375 0.888281 20.018 0.46875 19.5 0.46875C18.982 0.46875 18.5625 0.888281 18.5625 1.40625Z" stroke="black" stroke-width="0.8" stroke-miterlimit="10" stroke-linecap="round" stroke-linejoin="round"/>
<path d="M6.70312 22.5938C6.70312 22.8526 6.49327 23.0625 6.23437 23.0625C5.97548 23.0625 5.76562 22.8526 5.76562 22.5938C5.76562 22.3349 5.97548 22.125 6.23437 22.125C6.49327 22.125 6.70312 22.3349 6.70312 22.5938Z" fill="black"/>
<path d="M0.46875 22.5938H1.40625H4.125" stroke="black" stroke-width="0.8" stroke-miterlimit="10" stroke-linecap="round" stroke-linejoin="round"/>
<path d="M8.34375 22.5938H10.125L11.0625 23.5313H12.9375L13.875 22.5938H22.5938H23.5312" stroke="black" stroke-width="0.8" stroke-miterlimit="10" stroke-linecap="round" stroke-linejoin="round"/>
</g>
</g>
<defs>
<clipPath id="clip0_9793_12942">
<rect width="24" height="24" fill="white"/>
</clipPath>
</defs>
</svg>
