<svg width="24" height="24" viewBox="0 0 24 24" fill="none" xmlns="http://www.w3.org/2000/svg">
<path d="M5 20.25C5 20.664 5.336 21 5.75 21H16.402C17.565 21 18 20.635 18 19.4V17.955M5 20.25C5 19.6533 5.23706 19.081 5.65901 18.659C6.08097 18.2371 6.65327 18 7.25 18H17.402C17.628 18 17.8273 17.985 18 17.955M5 20.25V6.2C5 5.064 4.928 3.811 6.092 3.218C6.52 3 7.08 3 8.2 3H17.4C18.636 3 19 3.437 19 4.6V16.4C19 17.395 18.718 17.825 18 17.955" stroke="#636366" stroke-width="1.5" stroke-linecap="round" stroke-linejoin="round"/>
</svg>
