<svg width="28" height="28" viewBox="0 0 28 28" fill="none" xmlns="http://www.w3.org/2000/svg">
<g clip-path="url(#clip0_9889_14661)">
<path d="M2.72409 25.7139L14.0116 21.0709C14.3233 20.9451 14.4272 20.5678 14.2413 20.2506C13.7163 19.3647 12.6116 17.642 11.2116 16.242C9.85534 14.8858 8.20925 13.8467 7.35066 13.349C7.03894 13.1686 6.66706 13.2779 6.54128 13.5842L1.89284 24.8826C1.6905 25.3748 2.23738 25.9162 2.72409 25.7139Z" fill="#FCB424"/>
<path d="M14.2952 20.7376C13.9616 21.0712 11.971 19.7969 9.89289 17.7188C7.81476 15.6407 6.54054 13.6446 6.86867 13.311C7.20226 12.9774 9.20382 14.2407 11.2874 16.3243C13.371 18.4079 14.6234 20.4094 14.2952 20.7376Z" fill="#D67909"/>
<path d="M7.41602 23.7836L4.78008 24.8719L2.74023 22.8265L3.82305 20.1906L7.41602 23.7836Z" fill="#ED3F03"/>
<path d="M12.1953 21.8205L9.55938 22.9033L4.70312 18.0471L5.78594 15.4111L12.1953 21.8205Z" fill="#ED3F03"/>
<path d="M5.95 7.19102C6.39701 7.19102 6.75937 6.82865 6.75937 6.38164C6.75937 5.93463 6.39701 5.57227 5.95 5.57227C5.50299 5.57227 5.14062 5.93463 5.14062 6.38164C5.14062 6.82865 5.50299 7.19102 5.95 7.19102Z" fill="#FCB424"/>
<path d="M5.95 2.13281C6.39844 2.13281 6.75937 2.49375 6.75937 2.94219V4.42969C6.75937 4.87813 6.39844 5.23906 5.95 5.23906C5.50703 5.23906 5.14062 4.87813 5.14062 4.42969V2.94219C5.14062 2.49375 5.50703 2.13281 5.95 2.13281Z" fill="#FCB424"/>
<path d="M2.51055 5.57227H3.99805C4.44648 5.57227 4.80742 5.9332 4.80742 6.38164C4.80742 6.83008 4.44648 7.19102 3.99805 7.19102H2.51055C2.06211 7.19102 1.70117 6.83008 1.70117 6.38164C1.70117 5.9332 2.06211 5.57227 2.51055 5.57227Z" fill="#FCB424"/>
<path d="M5.95 7.52539C6.39844 7.52539 6.75937 7.88633 6.75937 8.33476V9.82227C6.75937 10.2707 6.39844 10.6316 5.95 10.6316C5.50156 10.6316 5.14062 10.2707 5.14062 9.82227V8.33476C5.14062 7.88633 5.50703 7.52539 5.95 7.52539Z" fill="#FCB424"/>
<path d="M7.90313 5.57227H9.39063C9.83906 5.57227 10.2 5.9332 10.2 6.38164C10.2 6.83008 9.83906 7.19102 9.39063 7.19102H7.90313C7.45469 7.19102 7.09375 6.83008 7.09375 6.38164C7.09375 5.9332 7.45469 5.57227 7.90313 5.57227Z" fill="#FCB424"/>
<path d="M23.243 21.9957C23.69 21.9957 24.0523 21.6333 24.0523 21.1863C24.0523 20.7393 23.69 20.377 23.243 20.377C22.796 20.377 22.4336 20.7393 22.4336 21.1863C22.4336 21.6333 22.796 21.9957 23.243 21.9957Z" fill="#00C853"/>
<path d="M23.243 16.9365C23.6914 16.9365 24.0523 17.2975 24.0523 17.7459V19.2334C24.0523 19.6818 23.6914 20.0428 23.243 20.0428C22.7945 20.0428 22.4336 19.6818 22.4336 19.2334V17.7459C22.4336 17.2975 22.7945 16.9365 23.243 16.9365Z" fill="#00C853"/>
<path d="M19.8025 20.377H21.29C21.7385 20.377 22.0994 20.7379 22.0994 21.1863C22.0994 21.6348 21.7385 21.9957 21.29 21.9957H19.8025C19.3541 21.9957 18.9932 21.6348 18.9932 21.1863C18.9932 20.7379 19.3541 20.377 19.8025 20.377Z" fill="#00C853"/>
<path d="M23.243 22.3291C23.6914 22.3291 24.0523 22.69 24.0523 23.1385V24.626C24.0523 25.0744 23.6914 25.4354 23.243 25.4354C22.7945 25.4354 22.4336 25.0744 22.4336 24.626V23.1385C22.4336 22.69 22.7945 22.3291 23.243 22.3291Z" fill="#00C853"/>
<path d="M25.1951 20.377H26.6826C27.1311 20.377 27.492 20.7379 27.492 21.1863C27.492 21.6348 27.1311 21.9957 26.6826 21.9957H25.1951C24.7467 21.9957 24.3857 21.6348 24.3857 21.1863C24.3857 20.7379 24.7467 20.377 25.1951 20.377Z" fill="#00C853"/>
<path d="M22.0994 6.04844C22.5464 6.04844 22.9088 5.68607 22.9088 5.23906C22.9088 4.79206 22.5464 4.42969 22.0994 4.42969C21.6524 4.42969 21.29 4.79206 21.29 5.23906C21.29 5.68607 21.6524 6.04844 22.0994 6.04844Z" fill="#07B7EE"/>
<path d="M22.0994 0.990234C22.5479 0.990234 22.9088 1.35117 22.9088 1.79961V3.28711C22.9088 3.73555 22.5479 4.09648 22.0994 4.09648C21.651 4.09648 21.29 3.73555 21.29 3.28711V1.79961C21.29 1.35117 21.6564 0.990234 22.0994 0.990234Z" fill="#07B7EE"/>
<path d="M17.8506 5.23906C17.8506 4.79063 18.2115 4.42969 18.66 4.42969H20.1475C20.5959 4.42969 20.9568 4.79063 20.9568 5.23906C20.9568 5.6875 20.5959 6.04844 20.1475 6.04844H18.66C18.217 6.04844 17.8506 5.6875 17.8506 5.23906Z" fill="#07B7EE"/>
<path d="M22.0994 9.48827C21.651 9.48827 21.29 9.12733 21.29 8.67889V7.19139C21.29 6.74296 21.651 6.38202 22.0994 6.38202C22.5479 6.38202 22.9088 6.74296 22.9088 7.19139V8.67889C22.9143 9.12733 22.5479 9.48827 22.0994 9.48827Z" fill="#07B7EE"/>
<path d="M26.3543 5.23906C26.3543 5.6875 25.9934 6.04844 25.5449 6.04844H24.0574C23.609 6.04844 23.248 5.6875 23.248 5.23906C23.248 4.79063 23.609 4.42969 24.0574 4.42969H25.5449C25.9879 4.42969 26.3543 4.79063 26.3543 5.23906Z" fill="#07B7EE"/>
<path d="M9.17125 16.6086C8.75563 16.45 8.54235 15.9852 8.70094 15.5641C8.7775 15.3672 8.91969 15.2086 9.1111 15.1211C9.81657 14.7875 10.6806 14.2406 10.79 13.5242C10.8939 12.8625 10.3306 12.1625 10.09 11.9383C9.83297 11.725 8.40016 10.4289 8.73375 8.98517C8.95797 8.02267 9.86578 7.33908 11.4353 6.96173C12.4744 6.71017 12.9009 6.38205 12.9502 6.15236C13.0267 5.8133 12.5181 5.17892 12.1298 4.86173C11.7853 4.57736 11.7361 4.06876 12.0205 3.72423C12.2994 3.38517 12.8025 3.33048 13.147 3.60392C13.322 3.74611 14.8533 5.03673 14.5252 6.50236C14.3064 7.46486 13.3986 8.14298 11.8127 8.5258C10.7845 8.77189 10.358 9.11095 10.3033 9.34064C10.2213 9.69611 10.7463 10.3742 11.14 10.7078L11.1673 10.7297C11.2275 10.7844 12.633 12.0914 12.3814 13.7539C12.2119 14.8969 11.3369 15.843 9.79469 16.5758C9.60328 16.6797 9.3736 16.6852 9.17125 16.6086Z" fill="#00C853"/>
<path d="M19.3487 27.9453C19.1573 28.0164 18.9495 28.0219 18.7526 27.9562C18.3588 27.8195 18.2057 27.4094 18.4081 27.0484C18.7581 26.4195 19.1026 25.5555 18.7635 25.0414C18.4463 24.5656 17.5878 24.4617 17.2651 24.4617C16.937 24.4781 15.0393 24.5219 14.4323 23.4172C14.0276 22.6789 14.3284 21.7055 15.3237 20.5297C15.9799 19.7531 16.1167 19.2883 16.0237 19.1187C15.8815 18.8617 15.0995 18.7633 14.6128 18.7961C14.1753 18.8289 13.8252 18.5391 13.8362 18.1562C13.8471 17.7734 14.2135 17.4344 14.651 17.4016C14.8752 17.3851 16.8385 17.2812 17.4674 18.3969C17.8776 19.1297 17.5713 20.1031 16.5651 21.2898C15.9143 22.0609 15.7831 22.5258 15.8815 22.7008C16.0292 22.9742 16.844 23.0836 17.3526 23.0562H17.3909C17.4729 23.0562 19.3487 23.0344 20.1526 24.2266C20.7049 25.0469 20.5956 26.1625 19.8299 27.5461C19.7151 27.7375 19.5456 27.8742 19.3487 27.9453Z" fill="#FCB424"/>
<path d="M14.9519 16.2911C14.5199 16.2747 14.1863 15.9083 14.2027 15.4763C14.2082 15.2903 14.2848 15.1099 14.4105 14.9731C14.4543 14.9239 15.5207 13.7919 17.5004 12.7966C18.6598 12.2169 19.8902 11.8013 21.1644 11.5606C22.7996 11.2599 24.473 11.2325 26.1137 11.4786C26.5402 11.5388 26.8355 11.938 26.7754 12.3646C26.7152 12.7911 26.316 13.0864 25.8894 13.0263C23.1551 12.6271 20.5902 13.0099 18.266 14.1638C16.516 15.0278 15.5699 16.0286 15.559 16.0341C15.4059 16.2146 15.1816 16.3021 14.9519 16.2911Z" fill="#9266CC"/>
<path d="M3.85031 17.719C3.77375 17.719 3.69719 17.7081 3.62609 17.6862C3.21047 17.5604 2.97531 17.1284 3.10109 16.7128C3.38 15.7393 3.58781 14.744 3.73547 13.7378C4.01984 11.6815 3.75187 10.6534 3.41281 10.3745C3.13937 10.1503 2.49953 10.2815 1.66828 10.73C1.28547 10.9378 0.809686 10.7956 0.607342 10.4128C0.399529 10.03 0.541717 9.55418 0.924529 9.35184C2.40656 8.54793 3.57687 8.4823 4.40265 9.15496C5.33781 9.91512 5.62765 11.4901 5.28312 13.9675C5.13 15.0448 4.90031 16.1112 4.59953 17.1557C4.50109 17.4893 4.19484 17.719 3.85031 17.719Z" fill="#9266CC"/>
<path d="M16.8609 11.0305C17.4076 11.0305 17.8508 10.5873 17.8508 10.0406C17.8508 9.49395 17.4076 9.05078 16.8609 9.05078C16.3143 9.05078 15.8711 9.49395 15.8711 10.0406C15.8711 10.5873 16.3143 11.0305 16.8609 11.0305Z" fill="#FCB424"/>
<path d="M15.8707 1.97969C16.4174 1.97969 16.8605 1.53652 16.8605 0.989844C16.8605 0.443168 16.4174 0 15.8707 0C15.324 0 14.8809 0.443168 14.8809 0.989844C14.8809 1.53652 15.324 1.97969 15.8707 1.97969Z" fill="#ED3F03"/>
<path d="M11.6107 25.9871C12.2269 25.9871 12.7264 25.4876 12.7264 24.8715C12.7264 24.2553 12.2269 23.7559 11.6107 23.7559C10.9946 23.7559 10.4951 24.2553 10.4951 24.8715C10.4951 25.4876 10.9946 25.9871 11.6107 25.9871Z" fill="#9266CC"/>
<path d="M20.9621 16.6633C21.391 16.6633 21.7387 16.3156 21.7387 15.8867C21.7387 15.4578 21.391 15.1102 20.9621 15.1102C20.5332 15.1102 20.1855 15.4578 20.1855 15.8867C20.1855 16.3156 20.5332 16.6633 20.9621 16.6633Z" fill="#07B7EE"/>
<path d="M25.9385 2.82733C26.4066 2.82733 26.7861 2.44782 26.7861 1.97968C26.7861 1.51153 26.4066 1.13202 25.9385 1.13202C25.4703 1.13202 25.0908 1.51153 25.0908 1.97968C25.0908 2.44782 25.4703 2.82733 25.9385 2.82733Z" fill="#9266CC"/>
</g>
<defs>
<clipPath id="clip0_9889_14661">
<rect width="28" height="28" fill="white"/>
</clipPath>
</defs>
</svg>
