<svg width="25" height="24" viewBox="0 0 25 24" fill="none" xmlns="http://www.w3.org/2000/svg">
<mask id="mask0_9482_8419" style="mask-type:luminance" maskUnits="userSpaceOnUse" x="2" y="2" width="20" height="20">
<path fill-rule="evenodd" clip-rule="evenodd" d="M2.5 2H21.9768V21.477H2.5V2Z" fill="white"/>
</mask>
<g mask="url(#mask0_9482_8419)">
<path fill-rule="evenodd" clip-rule="evenodd" d="M12.2388 3.5C7.69576 3.5 3.99976 7.195 3.99976 11.738C3.99976 16.281 7.69576 19.977 12.2388 19.977C16.7808 19.977 20.4768 16.281 20.4768 11.738C20.4768 7.195 16.7808 3.5 12.2388 3.5ZM12.2388 21.477C6.86876 21.477 2.49976 17.108 2.49976 11.738C2.49976 6.368 6.86876 2 12.2388 2C17.6088 2 21.9768 6.368 21.9768 11.738C21.9768 17.108 17.6088 21.477 12.2388 21.477Z" fill="#636366"/>
</g>
<mask id="mask1_9482_8419" style="mask-type:luminance" maskUnits="userSpaceOnUse" x="17" y="17" width="6" height="6">
<path fill-rule="evenodd" clip-rule="evenodd" d="M17.74 17.707H22.764V22.7217H17.74V17.707Z" fill="white"/>
</mask>
<g mask="url(#mask1_9482_8419)">
<path fill-rule="evenodd" clip-rule="evenodd" d="M22.0142 22.7217C21.8232 22.7217 21.6312 22.6487 21.4842 22.5027L17.9602 18.9887C17.6672 18.6957 17.6662 18.2207 17.9592 17.9277C18.2512 17.6327 18.7262 17.6347 19.0202 17.9257L22.5442 21.4407C22.8372 21.7337 22.8382 22.2077 22.5452 22.5007C22.3992 22.6487 22.2062 22.7217 22.0142 22.7217Z" fill="#636366"/>
</g>
</svg>
