<svg width="24" height="24" viewBox="0 0 24 24" fill="none" xmlns="http://www.w3.org/2000/svg">
<g clip-path="url(#clip0_9793_12713)">
<path fill-rule="evenodd" clip-rule="evenodd" d="M17.921 10.4249C17.7937 10.4249 17.6774 10.3585 17.6221 10.2367C16.9411 8.78063 14.8484 8.78617 14.1674 10.2367C13.9902 10.6187 13.3923 10.3419 13.575 9.95987C14.4885 8.00554 17.301 8.00554 18.2145 9.95987C18.3196 10.1758 18.1536 10.4249 17.921 10.4249ZM10.5854 20.5675C10.1868 20.501 9.79369 20.4125 9.41722 20.2907C8.77501 21.4865 7.55148 22.317 6.19508 22.4332C6.05667 22.4443 5.92379 22.3723 5.8629 22.245C5.29819 20.9993 5.39231 19.5377 6.11203 18.3806C5.8186 18.1094 5.54179 17.8159 5.28712 17.5059C4.46774 17.9876 3.45459 18.0485 2.58539 17.6554C2.45805 17.5945 2.38608 17.4616 2.39715 17.3232C2.48573 16.3709 3.03937 15.5294 3.86982 15.0588C3.73141 14.6879 3.61514 14.3004 3.52656 13.9073C2.16463 13.9516 0.852514 13.3038 0.0608189 12.191C-0.0222261 12.0747 -0.0222261 11.9253 0.0608189 11.809C0.852514 10.6962 2.15909 10.0485 3.52656 10.0927C3.61514 9.69966 3.73141 9.31212 3.86982 8.94118C3.0449 8.46506 2.48573 7.62907 2.39715 6.67682C2.38608 6.53842 2.45805 6.40554 2.58539 6.34464C3.44352 5.95156 4.47328 6.01246 5.28712 6.49412C5.54179 6.18409 5.8186 5.89066 6.11203 5.61938C5.39231 4.46229 5.29819 3.0007 5.8629 1.75502C5.92379 1.62769 6.05667 1.55018 6.19508 1.56679C7.55701 1.69412 8.76947 2.50243 9.41722 3.70935C9.79369 3.58755 10.1868 3.49897 10.5854 3.43253C10.5799 2.47475 11.0283 1.57786 11.8089 1.02423C11.9252 0.941183 12.0747 0.941183 12.1909 1.02423C12.9715 1.57786 13.42 2.47475 13.4145 3.43253C13.8131 3.49897 14.2061 3.58755 14.5826 3.70935C15.2304 2.50797 16.4428 1.68859 17.8048 1.56679C17.9432 1.55572 18.076 1.62769 18.1314 1.75502C18.7016 3.0007 18.6075 4.45675 17.8878 5.61938C18.1812 5.89066 18.4581 6.18409 18.7127 6.49412C19.5266 6.01246 20.5508 5.95156 21.4145 6.34464C21.5363 6.40554 21.6138 6.53842 21.6027 6.67682C21.5141 7.62907 20.9549 8.46506 20.1245 8.94118C20.2684 9.31212 20.3847 9.69966 20.4733 10.0927C21.8352 10.0485 23.1473 10.6962 23.939 11.809C24.0221 11.9253 24.0221 12.0747 23.939 12.191C23.1473 13.3038 21.8352 13.9516 20.4733 13.9073C20.3847 14.3004 20.2684 14.6879 20.1245 15.0588C20.9549 15.5294 21.5141 16.3709 21.6027 17.3232C21.647 17.8159 20.5176 17.9156 20.1965 17.9156C19.676 17.9156 19.1612 17.7716 18.7127 17.5059C18.4581 17.8159 18.1812 18.1094 17.8878 18.3806C18.6075 19.5377 18.7016 20.9993 18.1314 22.245C18.076 22.3723 17.9432 22.4498 17.8048 22.4332C16.4428 22.3004 15.2304 21.4976 14.5826 20.2907C14.2061 20.4125 13.8131 20.501 13.4145 20.5675C13.42 21.5253 12.9715 22.4222 12.1909 22.9758C12.0747 23.0588 11.9252 23.0588 11.8089 22.9758C11.0283 22.4222 10.5799 21.5253 10.5854 20.5675ZM3.32726 11.5931L3.40476 10.746C2.36947 10.746 1.39507 11.2055 0.741788 11.9972C1.39507 12.7945 2.36947 13.254 3.40476 13.254L3.32172 12.3239C3.0449 12.3239 2.47466 12.4235 2.47466 11.9972C2.47466 11.5709 3.0449 11.6706 3.32172 11.6706L3.32726 11.5931ZM11.3715 3.99724C7.10303 4.32942 4.0193 7.89482 3.96947 11.9142C3.91964 16.6256 8.03314 20.4789 12.8221 19.9862C17.6331 19.4934 20.6947 14.9924 19.8975 10.5689C19.1501 6.40001 15.5072 3.82561 11.3715 3.99724ZM19.1113 7.02008C19.1944 7.13634 19.2774 7.25814 19.3549 7.37994C19.593 7.23599 20.0359 6.8706 20.2463 7.24153C20.4622 7.61246 19.9196 7.80624 19.6816 7.94464C19.748 8.07198 19.8089 8.19932 19.8698 8.32665C20.4124 8.00554 20.7888 7.46852 20.9106 6.85399C20.3238 6.66021 19.6594 6.71558 19.1113 7.02008ZM19.1113 16.9799C19.6594 17.2844 20.3238 17.3398 20.9106 17.146C20.7888 16.5315 20.4124 15.9945 19.8698 15.6678C19.8089 15.8007 19.748 15.928 19.6816 16.0554C19.9196 16.1938 20.4622 16.3931 20.2463 16.764C20.0304 17.1405 19.5819 16.7585 19.3494 16.6256C19.2719 16.7474 19.1944 16.8637 19.1113 16.9799ZM15.2138 3.9308C15.5016 4.04707 15.784 4.1744 16.0553 4.31835C16.1937 4.08028 16.393 3.53772 16.7639 3.75364C17.1349 3.96402 16.7639 4.40693 16.6255 4.65053C16.8857 4.81108 17.1404 4.99378 17.384 5.18201C17.9155 4.30727 17.9819 3.19447 17.6276 2.24776C16.6366 2.41385 15.6954 3.02838 15.2138 3.9308ZM20.5951 13.254C21.6248 13.254 22.6048 12.7945 23.2581 11.9972C22.6048 11.2055 21.6248 10.746 20.5951 10.746L20.6781 11.6761C20.9549 11.6761 21.5252 11.5765 21.5252 12.0028C21.5252 12.4291 20.9549 12.3294 20.6781 12.3294L20.5951 13.254ZM15.2138 20.0692C15.7342 20.9661 16.6089 21.5806 17.6276 21.7523C17.993 20.7834 17.8989 19.7094 17.384 18.8125C17.1349 19.0062 16.8857 19.1889 16.62 19.355C16.7584 19.5931 17.1293 20.036 16.7584 20.2464C16.393 20.4623 16.1937 19.9197 16.0553 19.6817C15.7785 19.8256 15.5016 19.9529 15.2138 20.0692ZM12.3293 3.32181L12.7556 3.34949C12.7446 2.71835 12.4677 2.12042 11.9972 1.7052C11.5321 2.12042 11.2553 2.71835 11.2442 3.34949L11.676 3.32181C11.676 3.04499 11.5764 2.47475 12.0027 2.47475C12.429 2.47475 12.3293 3.04499 12.3293 3.32181ZM11.2442 20.6505C11.2553 21.2817 11.5321 21.8741 11.9972 22.2893C12.4677 21.8741 12.7446 21.2817 12.7556 20.6505L12.3238 20.6782C12.3238 20.955 12.4234 21.5253 11.9972 21.5253C11.5709 21.5253 11.6705 20.955 11.6705 20.6782L11.2442 20.6505ZM3.08366 17.146C3.67604 17.3398 4.3404 17.2844 4.8885 16.9799C4.80546 16.8637 4.72241 16.7419 4.6449 16.6201C4.41238 16.7585 3.96947 17.1405 3.75355 16.7585C3.53764 16.3876 4.07466 16.1938 4.31826 16.0554C4.25182 15.928 4.18539 15.8007 4.13002 15.6678C3.58746 15.9945 3.21099 16.5315 3.08366 17.146ZM3.08366 6.85399C3.21099 7.46298 3.58746 8.00554 4.13002 8.32665C4.19092 8.19932 4.25182 8.07198 4.31826 7.94464C4.0802 7.8007 3.53764 7.60693 3.75355 7.23599C3.96947 6.86506 4.40684 7.23599 4.65044 7.3744C4.72241 7.2526 4.80546 7.13634 4.8885 7.02008C4.3404 6.71558 3.67604 6.66021 3.08366 6.85399ZM6.61584 18.818C6.10096 19.7149 6.00684 20.7834 6.37224 21.7523C7.38539 21.5806 8.2712 20.9661 8.78608 20.0692C8.49819 19.9529 8.21584 19.8256 7.94456 19.6817C7.80615 19.9197 7.6013 20.4568 7.23591 20.2464C6.86497 20.0305 7.23591 19.5931 7.37431 19.3495C7.11411 19.1889 6.85944 19.0062 6.61584 18.818ZM6.37224 2.24776C6.00684 3.21662 6.10649 4.28513 6.61584 5.18201C6.85944 4.98824 7.11411 4.81108 7.37985 4.64499C7.23591 4.40693 6.87051 3.96402 7.24144 3.75364C7.60684 3.53772 7.80615 4.07475 7.94456 4.31835C8.21584 4.1744 8.49819 4.04153 8.78608 3.9308C8.27674 3.03392 7.37985 2.41938 6.37224 2.24776ZM8.10511 11.2941C7.67328 11.2941 7.77847 10.7183 7.77847 10.4415C7.77847 10.0152 8.43175 10.0152 8.43175 10.4415C8.43175 10.7183 8.53141 11.2941 8.10511 11.2941ZM15.8947 11.2941C15.4629 11.2941 15.5681 10.7183 15.5681 10.4415C15.5681 10.0152 16.2214 10.0152 16.2214 10.4415C16.2214 10.7183 16.3266 11.2941 15.8947 11.2941ZM11.6705 13.9626V9.48928C11.6705 8.40416 10.7847 7.51835 9.69957 7.51835H7.39646C6.9757 7.51835 6.9757 6.85952 7.39646 6.85952H9.69957C10.6906 6.85952 11.5487 7.40762 11.9972 8.22146C12.4511 7.40762 13.3093 6.85952 14.3003 6.85952H16.6034C17.0241 6.85952 17.0241 7.51835 16.6034 7.51835H14.3003C13.2151 7.51835 12.3293 8.40416 12.3293 9.48928V13.9626C12.357 14.1121 12.6117 15.0588 13.9515 15.1474C14.3778 15.1751 14.3279 15.8339 13.9072 15.8007C12.9217 15.7343 12.3238 15.2803 11.9972 14.8097C11.7093 15.2249 11.0061 15.8007 10.0705 15.8007C9.66082 15.8007 9.63314 15.1751 10.0484 15.1474C11.3937 15.0588 11.6428 14.1066 11.6705 13.9626ZM12.4843 16.7696H11.5155C11.0947 16.7696 11.0947 16.1107 11.5155 16.1107H12.4843C12.9051 16.1107 12.9051 16.7696 12.4843 16.7696ZM11.9972 18.6242C11.2719 18.6242 10.5799 18.3142 10.0927 17.7716C9.8103 17.4616 10.2975 17.0187 10.5799 17.3343C11.3273 18.1702 12.6726 18.1702 13.42 17.3343C13.7023 17.0187 14.1895 17.4561 13.9072 17.7716C13.42 18.3142 12.7279 18.6242 11.9972 18.6242ZM10.1314 10.4249C10.0041 10.4249 9.88781 10.3585 9.83245 10.2367C9.15148 8.78063 7.05874 8.78617 6.37777 10.2367C6.19508 10.6187 5.60269 10.3419 5.78539 9.95987C6.69888 8.00554 9.51134 8.00554 10.4248 9.95987C10.53 10.1758 10.3639 10.4249 10.1314 10.4249Z" fill="black"/>
<path fill-rule="evenodd" clip-rule="evenodd" d="M14.3005 6.85953H16.6036C17.0244 6.85953 17.0244 7.51835 16.6036 7.51835H14.3005C13.2154 7.51835 12.3295 8.40417 12.3295 9.48929V13.9626C12.3572 14.1121 12.6119 15.0588 13.9517 15.1474C14.378 15.1751 14.3282 15.8339 13.9074 15.8007C12.9219 15.7343 12.324 15.2803 11.9974 14.8097C11.7095 15.2249 11.0064 15.8007 10.0707 15.8007C9.66104 15.8007 9.63335 15.1751 10.0486 15.1474C11.3939 15.0588 11.643 14.1066 11.6707 13.9626V9.48929C11.6707 8.40417 10.7849 7.51835 9.69979 7.51835H7.39668C6.97591 7.51835 6.97591 6.85953 7.39668 6.85953H9.69979C10.6908 6.85953 11.5489 7.40763 11.9974 8.22147C12.4513 7.40763 13.3095 6.85953 14.3005 6.85953ZM13.5752 9.95988C14.4887 8.00555 17.3012 8.00555 18.2147 9.95988C18.3199 10.1758 18.1538 10.4249 17.9212 10.4249C17.7939 10.4249 17.6776 10.3585 17.6223 10.2367C16.9413 8.78064 14.8486 8.78617 14.1676 10.2367C13.9904 10.6187 13.3925 10.3419 13.5752 9.95988ZM10.5801 17.3343C11.3275 18.1703 12.6728 18.1703 13.4202 17.3343C13.7026 17.0187 14.1898 17.4561 13.9074 17.7716C13.4202 18.3142 12.7282 18.6242 11.9974 18.6242C11.2721 18.6242 10.5801 18.3142 10.0929 17.7716C9.81052 17.4616 10.2977 17.0187 10.5801 17.3343ZM3.96969 11.9142C3.91986 16.6256 8.03335 20.4789 12.8223 19.9862C17.6334 19.4934 20.6949 14.9924 19.8977 10.5689C19.1503 6.40002 15.5074 3.82562 11.3718 3.99725C7.10325 4.32943 4.01951 7.89482 3.96969 11.9142ZM5.7856 9.95988C6.6991 8.00555 9.51155 8.00555 10.425 9.95988C10.5302 10.1758 10.3642 10.4249 10.1316 10.4249C10.0043 10.4249 9.88803 10.3585 9.83266 10.2367C9.15169 8.78064 7.05896 8.78617 6.37799 10.2367C6.19529 10.6187 5.6029 10.3419 5.7856 9.95988ZM15.5683 10.4415C15.5683 10.0152 16.2216 10.0152 16.2216 10.4415C16.2216 10.7184 16.3268 11.2941 15.8949 11.2941C15.4631 11.2941 15.5683 10.7184 15.5683 10.4415ZM7.77868 10.4415C7.77868 10.0152 8.43197 10.0152 8.43197 10.4415C8.43197 10.7184 8.53162 11.2941 8.10533 11.2941C7.67349 11.2941 7.77868 10.7184 7.77868 10.4415ZM11.5157 16.1107H12.4846C12.9053 16.1107 12.9053 16.7696 12.4846 16.7696H11.5157C11.0949 16.7696 11.0949 16.1107 11.5157 16.1107Z" fill="#FFA721"/>
<path fill-rule="evenodd" clip-rule="evenodd" d="M16.764 3.75365C17.135 3.96404 16.764 4.40694 16.6256 4.65054C16.8858 4.81109 17.1405 4.99379 17.3841 5.18203C17.9156 4.30729 17.982 3.19449 17.6277 2.24777C16.6367 2.41386 15.6955 3.0284 15.2139 3.93082C15.5018 4.04708 15.7841 4.17442 16.0554 4.31836C16.1938 4.0803 16.3931 3.53774 16.764 3.75365Z" fill="#7DD63E"/>
<path fill-rule="evenodd" clip-rule="evenodd" d="M20.9106 6.854C20.3238 6.66023 19.6594 6.71559 19.1113 7.02009C19.1944 7.13635 19.2774 7.25815 19.3549 7.37995C19.593 7.23601 20.0359 6.87061 20.2463 7.24154C20.4622 7.61248 19.9196 7.80625 19.6816 7.94466C19.748 8.07199 19.8089 8.19933 19.8698 8.32666C20.4124 8.00556 20.7888 7.46853 20.9106 6.854Z" fill="#7DD63E"/>
<path fill-rule="evenodd" clip-rule="evenodd" d="M23.2582 11.9972C22.6049 11.2055 21.625 10.746 20.5952 10.746L20.6783 11.6761C20.9551 11.6761 21.5253 11.5765 21.5253 12.0028C21.5253 12.4291 20.9551 12.3294 20.6783 12.3294L20.5952 13.254C21.625 13.254 22.6049 12.7945 23.2582 11.9972Z" fill="#7DD63E"/>
<path fill-rule="evenodd" clip-rule="evenodd" d="M20.9106 17.146C20.7888 16.5315 20.4124 15.9945 19.8698 15.6678C19.8089 15.8007 19.748 15.928 19.6816 16.0554C19.9196 16.1938 20.4622 16.3931 20.2463 16.764C20.0304 17.1405 19.5819 16.7585 19.3494 16.6256C19.2719 16.7474 19.1944 16.8637 19.1113 16.9799C19.6594 17.2844 20.3238 17.3398 20.9106 17.146Z" fill="#7DD63E"/>
<path fill-rule="evenodd" clip-rule="evenodd" d="M17.6277 21.7523C17.9931 20.7834 17.899 19.7094 17.3841 18.8125C17.135 19.0062 16.8858 19.1889 16.6201 19.355C16.7585 19.5931 17.1294 20.036 16.7585 20.2464C16.3931 20.4623 16.1938 19.9197 16.0554 19.6817C15.7786 19.8256 15.5018 19.953 15.2139 20.0692C15.7343 20.9661 16.609 21.5806 17.6277 21.7523Z" fill="#7DD63E"/>
<path fill-rule="evenodd" clip-rule="evenodd" d="M11.9971 22.2893C12.4677 21.8741 12.7445 21.2817 12.7556 20.6505L12.3237 20.6782C12.3237 20.955 12.4234 21.5253 11.9971 21.5253C11.5708 21.5253 11.6704 20.955 11.6704 20.6782L11.2441 20.6505C11.2552 21.2817 11.532 21.8741 11.9971 22.2893Z" fill="#7DD63E"/>
<path fill-rule="evenodd" clip-rule="evenodd" d="M6.37227 21.7522C7.38542 21.5806 8.27123 20.9661 8.78611 20.0692C8.49822 19.9529 8.21587 19.8256 7.94459 19.6817C7.80618 19.9197 7.60134 20.4567 7.23594 20.2464C6.86501 20.0304 7.23594 19.5931 7.37435 19.3495C7.11414 19.1889 6.85947 19.0062 6.61587 18.818C6.10099 19.7149 6.00687 20.7834 6.37227 21.7522Z" fill="#7DD63E"/>
<path fill-rule="evenodd" clip-rule="evenodd" d="M3.0835 17.146C3.67588 17.3398 4.34024 17.2844 4.88834 16.9799C4.8053 16.8637 4.72225 16.7419 4.64474 16.6201C4.41222 16.7585 3.96931 17.1405 3.75339 16.7585C3.53748 16.3875 4.0745 16.1938 4.3181 16.0554C4.25166 15.928 4.18523 15.8007 4.12986 15.6678C3.5873 15.9945 3.21083 16.5315 3.0835 17.146Z" fill="#7DD63E"/>
<path fill-rule="evenodd" clip-rule="evenodd" d="M0.741699 11.9972C1.39499 12.7945 2.36938 13.254 3.40468 13.254L3.32163 12.3239C3.04481 12.3239 2.47457 12.4235 2.47457 11.9972C2.47457 11.5709 3.04481 11.6706 3.32163 11.6706L3.32717 11.5931L3.40468 10.746C2.36938 10.746 1.39499 11.2055 0.741699 11.9972Z" fill="#7DD63E"/>
<path fill-rule="evenodd" clip-rule="evenodd" d="M3.0835 6.854C3.21083 7.463 3.5873 8.00556 4.12986 8.32666C4.19076 8.19933 4.25166 8.07199 4.3181 7.94466C4.08004 7.80071 3.53748 7.60694 3.75339 7.23601C3.96931 6.86507 4.40668 7.23601 4.65028 7.37442C4.72225 7.25262 4.8053 7.13635 4.88834 7.02009C4.34024 6.71559 3.67588 6.66023 3.0835 6.854Z" fill="#7DD63E"/>
<path fill-rule="evenodd" clip-rule="evenodd" d="M6.37212 2.24777C6.00673 3.21663 6.10638 4.28514 6.61572 5.18203C6.85932 4.98826 7.11399 4.81109 7.37974 4.645C7.23579 4.40694 6.87039 3.96404 7.24133 3.75365C7.60673 3.53774 7.80603 4.07476 7.94444 4.31836C8.21572 4.17442 8.49808 4.04154 8.78597 3.93082C8.27662 3.03393 7.37974 2.4194 6.37212 2.24777Z" fill="#7DD63E"/>
<path fill-rule="evenodd" clip-rule="evenodd" d="M11.9971 1.7052C11.532 2.12043 11.2552 2.71835 11.2441 3.34949L11.676 3.32181C11.676 3.04499 11.5763 2.47475 12.0026 2.47475C12.4289 2.47475 12.3293 3.04499 12.3293 3.32181L12.7556 3.34949C12.7445 2.71835 12.4677 2.12043 11.9971 1.7052Z" fill="#7DD63E"/>
</g>
<defs>
<clipPath id="clip0_9793_12713">
<rect width="24" height="24" fill="white"/>
</clipPath>
</defs>
</svg>
