<svg width="25" height="24" viewBox="0 0 25 24" fill="none" xmlns="http://www.w3.org/2000/svg">
<path d="M18.3877 10.8967C19.7827 10.7007 20.8567 9.50473 20.8597 8.05573C20.8597 6.62773 19.8187 5.44373 18.4537 5.21973" stroke="#636366" stroke-width="1.5" stroke-linecap="round" stroke-linejoin="round"/>
<path d="M20.2285 14.2505C21.5795 14.4525 22.5225 14.9255 22.5225 15.9005C22.5225 16.5715 22.0785 17.0075 21.3605 17.2815" stroke="#636366" stroke-width="1.5" stroke-linecap="round" stroke-linejoin="round"/>
<path fill-rule="evenodd" clip-rule="evenodd" d="M12.3867 14.6638C9.17269 14.6638 6.42769 15.1508 6.42769 17.0958C6.42769 19.0398 9.15569 19.5408 12.3867 19.5408C15.6007 19.5408 18.3447 19.0588 18.3447 17.1128C18.3447 15.1668 15.6177 14.6638 12.3867 14.6638Z" stroke="#636366" stroke-width="1.5" stroke-linecap="round" stroke-linejoin="round"/>
<path fill-rule="evenodd" clip-rule="evenodd" d="M12.3867 11.888C14.4957 11.888 16.2057 10.179 16.2057 8.069C16.2057 5.96 14.4957 4.25 12.3867 4.25C10.2777 4.25 8.56769 5.96 8.56769 8.069C8.55969 10.171 10.2567 11.881 12.3587 11.888H12.3867Z" stroke="#636366" stroke-width="1.5" stroke-linecap="round" stroke-linejoin="round"/>
<path d="M6.3848 10.8967C4.9888 10.7007 3.9158 9.50473 3.9128 8.05573C3.9128 6.62773 4.9538 5.44373 6.3188 5.21973" stroke="#636366" stroke-width="1.5" stroke-linecap="round" stroke-linejoin="round"/>
<path d="M4.54389 14.2505C3.19289 14.4525 2.24989 14.9255 2.24989 15.9005C2.24989 16.5715 2.69389 17.0075 3.41189 17.2815" stroke="#636366" stroke-width="1.5" stroke-linecap="round" stroke-linejoin="round"/>
</svg>
