<svg width="16" height="16" viewBox="0 0 16 16" fill="none" xmlns="http://www.w3.org/2000/svg">
<path fill-rule="evenodd" clip-rule="evenodd" d="M7.99532 13.1974C5.12713 13.1974 2.79321 10.8635 2.79321 7.99532C2.79321 5.12713 5.12713 2.79321 7.99532 2.79321C10.8635 2.79321 13.1974 5.12713 13.1974 7.99532C13.1974 10.8635 10.8635 13.1974 7.99532 13.1974Z" fill="#FFC107"/>
<path fill-rule="evenodd" clip-rule="evenodd" d="M7.99541 2.00586C7.86419 2.00586 7.75171 1.90275 7.75171 1.76216V0.243702C7.75171 0.112478 7.86419 0 7.99541 0C8.13601 0 8.23911 0.112478 8.23911 0.243702V1.76216C8.23911 1.90275 8.13601 2.00586 7.99541 2.00586Z" fill="#FF9D05"/>
<path fill-rule="evenodd" clip-rule="evenodd" d="M11.1167 2.84007C11.0698 2.84007 11.0323 2.83069 10.9948 2.81195C10.873 2.74633 10.8355 2.59636 10.9011 2.48389L11.6697 1.16227C11.7353 1.04042 11.8853 1.00292 11.9977 1.06854C12.1102 1.13415 12.1571 1.28412 12.0821 1.40597L11.3229 2.71822C11.276 2.80257 11.201 2.84007 11.1167 2.84007Z" fill="#FF9D05"/>
<path fill-rule="evenodd" clip-rule="evenodd" d="M13.3943 5.12714C13.3099 5.12714 13.2255 5.08027 13.188 5.00529C13.1224 4.88343 13.1599 4.74284 13.2724 4.66785L14.594 3.90863C14.7065 3.84301 14.8565 3.88051 14.9221 4.00236C14.9877 4.11483 14.9502 4.26481 14.8377 4.33042L13.5161 5.08964C13.4786 5.11776 13.4411 5.12714 13.3943 5.12714Z" fill="#FF9D05"/>
<path fill-rule="evenodd" clip-rule="evenodd" d="M15.7564 8.23902H14.2286C14.0973 8.23902 13.9849 8.13592 13.9849 7.99532C13.9849 7.8641 14.0973 7.75162 14.2286 7.75162H15.7564C15.8876 7.75162 16.0001 7.8641 16.0001 7.99532C16.0001 8.13592 15.8876 8.23902 15.7564 8.23902Z" fill="#FF9D05"/>
<path fill-rule="evenodd" clip-rule="evenodd" d="M14.7159 12.1195C14.669 12.1195 14.6315 12.1101 14.594 12.082L13.2724 11.3228C13.1599 11.2572 13.1224 11.1072 13.188 10.9947C13.2537 10.8729 13.4036 10.8354 13.5161 10.901L14.8377 11.6696C14.9502 11.7352 14.9877 11.8852 14.9221 11.9977C14.8846 12.0726 14.8002 12.1195 14.7159 12.1195Z" fill="#FF9D05"/>
<path fill-rule="evenodd" clip-rule="evenodd" d="M11.8759 14.9596C11.7915 14.9596 11.7072 14.9127 11.6697 14.8377L10.9011 13.5161C10.8355 13.4036 10.873 13.2537 10.9948 13.188C11.1073 13.1224 11.2573 13.1599 11.3229 13.2724L12.0821 14.594C12.1571 14.7065 12.1102 14.8565 11.9977 14.9221C11.9603 14.9502 11.9134 14.9596 11.8759 14.9596Z" fill="#FF9D05"/>
<path fill-rule="evenodd" clip-rule="evenodd" d="M7.99541 16C7.86419 16 7.75171 15.8875 7.75171 15.7563V14.2285C7.75171 14.0972 7.86419 13.9848 7.99541 13.9848C8.13601 13.9848 8.23911 14.0972 8.23911 14.2285V15.7563C8.23911 15.8875 8.13601 16 7.99541 16Z" fill="#FF9D05"/>
<path fill-rule="evenodd" clip-rule="evenodd" d="M4.12424 14.9596C4.07737 14.9596 4.03988 14.9502 4.00239 14.9221C3.88054 14.8565 3.84304 14.7065 3.90866 14.594L4.66788 13.2724C4.74287 13.1599 4.88347 13.1131 5.00532 13.1881C5.11779 13.2537 5.15529 13.4036 5.08967 13.5161L4.33045 14.8377C4.28358 14.9127 4.2086 14.9596 4.12424 14.9596Z" fill="#FF9D05"/>
<path fill-rule="evenodd" clip-rule="evenodd" d="M1.28415 12.1195C1.19979 12.1195 1.11543 12.0726 1.06857 11.9977C1.00296 11.8852 1.04045 11.7352 1.1623 11.6696L2.48392 10.901C2.59639 10.8354 2.74637 10.8729 2.81198 10.9947C2.87759 11.1072 2.8401 11.2572 2.72762 11.3228L1.406 12.082C1.36851 12.1101 1.32164 12.1195 1.28415 12.1195Z" fill="#FF9D05"/>
<path fill-rule="evenodd" clip-rule="evenodd" d="M1.76216 8.23902H0.243702C0.112478 8.23902 0 8.13592 0 7.99532C0 7.8641 0.112478 7.75162 0.243702 7.75162H1.76216C1.90275 7.75162 2.00586 7.8641 2.00586 7.99532C2.00586 8.13592 1.90275 8.23902 1.76216 8.23902Z" fill="#FF9D05"/>
<path fill-rule="evenodd" clip-rule="evenodd" d="M2.60577 5.12714C2.5589 5.12714 2.52141 5.11776 2.48392 5.08964L1.1623 4.33042C1.04045 4.26481 1.00296 4.11483 1.06857 4.00236C1.13418 3.88051 1.28415 3.84301 1.406 3.90863L2.72762 4.66785C2.8401 4.74284 2.87759 4.88343 2.81198 5.00529C2.76511 5.08027 2.68075 5.12714 2.60577 5.12714Z" fill="#FF9D05"/>
<path fill-rule="evenodd" clip-rule="evenodd" d="M4.88347 2.84007C4.79911 2.84007 4.71475 2.80257 4.66788 2.72759L3.90866 1.40597C3.84304 1.28412 3.88054 1.13415 4.00239 1.06854C4.11487 1.00292 4.26484 1.04042 4.33045 1.16227L5.08967 2.48389C5.15529 2.59636 5.11779 2.74633 5.00532 2.81195C4.96782 2.83069 4.92096 2.84007 4.88347 2.84007Z" fill="#FF9D05"/>
<path fill-rule="evenodd" clip-rule="evenodd" d="M9.75748 10.9478C9.72936 10.9478 9.70124 10.9478 9.67312 10.9291L7.99533 10.2824L6.3269 10.9291C6.25192 10.9666 6.15819 10.9478 6.09257 10.901C6.02696 10.8541 5.98947 10.7791 5.99884 10.6948L6.10195 8.9045L4.95842 7.51727C4.91155 7.45166 4.89281 7.3673 4.92093 7.28294C4.94905 7.20795 5.00529 7.14234 5.08964 7.12359L6.82368 6.67368L7.79849 5.15523C7.83598 5.08962 7.92034 5.05212 7.99533 5.05212C8.07968 5.05212 8.15467 5.08962 8.20154 5.15523L9.17635 6.67368L10.9104 7.12359C10.9854 7.14234 11.051 7.20795 11.0791 7.28294C11.1072 7.3673 11.0885 7.45166 11.0322 7.51727L9.89808 8.9045L10.0012 10.6948C10.0012 10.7791 9.96369 10.8541 9.89808 10.901C9.86059 10.9385 9.80435 10.9478 9.75748 10.9478Z" fill="white"/>
</svg>
